<?xml version="1.0" encoding="UTF-8" standalone="no"?>
<svg
   xmlns:dc="http://purl.org/dc/elements/1.1/"
   xmlns:cc="http://creativecommons.org/ns#"
   xmlns:rdf="http://www.w3.org/1999/02/22-rdf-syntax-ns#"
   xmlns:svg="http://www.w3.org/2000/svg"
   xmlns="http://www.w3.org/2000/svg"
   xmlns:xlink="http://www.w3.org/1999/xlink"
   version="1.1"
   id="svg4220"
   viewBox="0 0 2541.3574 1068.2138"
   height="301.47366mm"
   width="717.22754mm">
  <defs
     id="defs4222">
    <clipPath
       id="clipPath7818"
       clipPathUnits="userSpaceOnUse">
      <rect
         y="1376.6129"
         x="1644.2755"
         height="436.03226"
         width="1027.5875"
         id="rect7820"
         style="opacity:1;fill:#f3f3f3;fill-opacity:1;stroke:none;stroke-width:2;stroke-linecap:round;stroke-linejoin:round;stroke-miterlimit:4;stroke-dasharray:none;stroke-dashoffset:0;stroke-opacity:1" />
    </clipPath>
    <linearGradient
       gradientTransform="translate(4.4194174,1230.8077)"
       gradientUnits="userSpaceOnUse"
       y2="428.01797"
       x2="2160.9773"
       y1="239.51219"
       x1="2027.9385"
       id="linearGradient7503"
       xlink:href="#linearGradient7497" />
    <linearGradient
       id="linearGradient7497">
      <stop
         id="stop7499"
         offset="0"
         style="stop-color:#dfdfdf;stop-opacity:1" />
      <stop
         id="stop7501"
         offset="1"
         style="stop-color:#000000;stop-opacity:1" />
    </linearGradient>
  </defs>
  <metadata
     id="metadata4225">
    <rdf:RDF>
      <cc:Work
         rdf:about="">
        <dc:format>image/svg+xml</dc:format>
        <dc:type
           rdf:resource="http://purl.org/dc/dcmitype/StillImage" />
        <dc:title></dc:title>
      </cc:Work>
    </rdf:RDF>
  </metadata>
  <g
     transform="translate(950.33708,369.51741)"
     id="layer1">
    <g
       clip-path="url(#clipPath7818)"
       transform="matrix(2.7988618,0,0,2.7988618,-5887.155,-4374.647)"
       id="g7705"
       style="display:inline;opacity:0.13999999">
      <g
         id="g6792"
         transform="matrix(1.3987298,0,0,1.3987298,357.95553,369.31061)"
         clip-path="none">
        <path
           style="fill:#e9e9e9"
           d="m 1380.1339,1100.2776 -375,0 0,-16.875 0,-16.875 16.875,0 16.875,0 0,-17.5 0,-17.5 17.5,0 17.5,0 0,-16.875 0,-16.87501 16.875,0 16.875,0 0,-16.875 0,-16.875 16.875,0 16.875,0 0,-16.875 0,-16.875 34.375,0 34.375,0 0,-17.5 0,-17.5 68.125,0 68.125,0 0,-16.875 0,-16.875 33.75,0 33.75,0 0,-16.875 0,-16.875 68.125,0 68.125,0 0,-17.5 0,-17.5 34.375,0 34.375,0 0,-16.875 0,-16.875 68.125,0 68.125,0 0,170.625 0,170.62501 -375,0 z"
           id="path6810" />
        <path
           style="fill:#cdcdcd"
           d="m 1397.0089,1100.2776 -358.125,0 0,-34.375 0,-34.375 17.5,0 17.5,0 0,-16.875 0,-16.87501 33.75,0 33.75,0 0,-16.875 0,-16.875 16.875,0 16.875,0 0,-16.875 0,-16.875 34.375,0 34.375,0 0,-17.5 0,-17.5 51.25,0 51.25,0 0,-16.875 0,-16.875 68.125,0 68.125,0 0,-16.875 0,-16.875 33.75,0 33.75,0 0,-17.5 0,-17.5 34.375,0 34.375,0 0,-16.875 0,-16.875 68.125,0 68.125,0 0,170.625 0,170.62501 -358.125,0 z"
           id="path6808" />
        <path
           style="fill:#b2b2b2"
           d="m 1397.0089,1100.2776 -358.125,0 0,-16.875 0,-16.875 17.5,0 17.5,0 0,-17.5 0,-17.5 16.875,0 16.875,0 0,-16.875 0,-16.87501 16.875,0 16.875,0 0,-16.875 0,-16.875 16.875,0 16.875,0 0,-16.875 0,-16.875 51.25,0 51.25,0 0,-17.5 0,-17.5 51.25,0 51.25,0 0,-16.875 0,-16.875 68.125,0 68.125,0 0,-16.875 0,-16.875 34.375,0 34.375,0 0,-17.5 0,-17.5 16.875,0 16.875,0 0,-16.875 0,-16.875 68.125,0 68.125,0 0,170.625 0,170.62501 -358.125,0 z"
           id="path6806" />
        <path
           style="fill:#8b8b8b"
           d="m 1397.0089,1100.2776 -358.125,0 0,-16.875 0,-16.875 17.5,0 17.5,0 0,-17.5 0,-17.5 16.875,0 16.875,0 0,-16.875 0,-16.87501 16.875,0 16.875,0 0,-16.875 0,-16.875 34.375,0 34.375,0 0,-16.875 0,-16.875 50.625,0 50.625,0 0,-17.5 0,-17.5 51.25,0 51.25,0 0,-16.875 0,-16.875 51.25,0 51.25,0 0,-16.875 0,-16.875 34.375,0 34.375,0 0,-17.5 0,-17.5 33.75,0 33.75,0 0,-16.875 0,-16.875 51.25,0 51.25,0 0,170.625 0,170.62501 -358.125,0 z"
           id="path6804" />
        <path
           style="fill:#747474"
           d="m 1397.0089,1100.2776 -358.125,0 0,-16.875 0,-16.875 17.5,0 17.5,0 0,-17.5 0,-17.5 33.75,0 33.75,0 0,-16.875 0,-16.87501 16.875,0 16.875,0 0,-16.875 0,-16.875 17.5,0 17.5,0 0,-16.875 0,-16.875 68.125,0 68.125,0 0,-17.5 0,-17.5 33.75,0 33.75,0 0,-16.875 0,-16.875 68.125,0 68.125,0 0,-16.875 0,-16.875 17.5,0 17.5,0 0,-17.5 0,-17.5 33.75,0 33.75,0 0,-16.875 0,-16.875 51.25,0 51.25,0 0,170.625 0,170.62501 -358.125,0 z"
           id="path6802" />
        <path
           style="fill:#505050"
           d="m 1397.0089,1100.2776 -358.125,0 0,-16.875 0,-16.875 17.5,0 17.5,0 0,-17.5 0,-17.5 33.75,0 33.75,0 0,-16.875 0,-16.87501 16.875,0 16.875,0 0,-16.875 0,-16.875 34.375,0 34.375,0 0,-16.875 0,-16.875 51.25,0 51.25,0 0,-17.5 0,-17.5 51.25,0 51.25,0 0,-16.875 0,-16.875 50.625,0 50.625,0 0,-16.875 0,-16.875 34.375,0 34.375,0 0,-17.5 0,-17.5 16.875,0 16.875,0 0,-16.875 0,-16.875 51.25,0 51.25,0 0,170.625 0,170.62501 -358.125,0 z"
           id="path6800" />
        <path
           style="fill:#393939"
           d="m 1414.5089,1100.2776 -340.625,0 0,-16.875 0,-16.875 16.875,0 16.875,0 0,-17.5 0,-17.5 16.875,0 16.875,0 0,-16.875 0,-16.87501 16.875,0 16.875,0 0,-16.875 0,-16.875 51.25,0 51.25,0 0,-16.875 0,-16.875 51.25,0 51.25,0 0,-17.5 0,-17.5 51.25,0 51.25,0 0,-16.875 0,-16.875 33.75,0 33.75,0 0,-16.875 0,-16.875 34.375,0 34.375,0 0,-17.5 0,-17.5 16.875,0 16.875,0 0,-16.875 0,-16.875 51.25,0 51.25,0 0,170.625 0,170.62501 -340.625,0 z"
           id="path6798" />
        <path
           style="fill:#272727"
           d="m 1414.5089,1100.2776 -340.625,0 0,-16.875 0,-16.875 16.875,0 16.875,0 0,-17.5 0,-17.5 16.875,0 16.875,0 0,-16.875 0,-16.87501 34.375,0 34.375,0 0,-16.875 0,-16.875 33.75,0 33.75,0 0,-16.875 0,-16.875 51.25,0 51.25,0 0,-17.5 0,-17.5 68.125,0 68.125,0 0,-16.875 0,-16.875 16.875,0 16.875,0 0,-16.875 0,-16.875 34.375,0 34.375,0 0,-17.5 0,-17.5 33.75,0 33.75,0 0,-16.875 0,-16.875 34.375,0 34.375,0 0,170.625 0,170.62501 -340.625,0 z"
           id="path6796" />
        <path
           style="fill:#000000"
           d="m 1414.5089,1100.2776 -340.625,0 0,-16.875 0,-16.875 16.875,0 16.875,0 0,-17.5 0,-17.5 33.75,0 33.75,0 0,-16.875 0,-16.87501 17.5,0 17.5,0 0,-16.875 0,-16.875 68.125,0 68.125,0 0,-16.875 0,-16.875 33.75,0 33.75,0 0,-17.5 0,-17.5 51.25,0 51.25,0 0,-16.875 0,-16.875 34.375,0 34.375,0 0,-16.875 0,-16.875 33.75,0 33.75,0 0,-17.5 0,-17.5 16.875,0 16.875,0 0,-16.875 0,-16.875 34.375,0 34.375,0 0,170.625 0,170.62501 -340.625,0 z"
           id="path6794" />
      </g>
      <path
         id="path6921"
         style="fill:url(#linearGradient7503);fill-opacity:1"
         d="m 2103.6252,1541.7971 c -0.5976,-0.6061 -1.1005,0.2964 -0.6123,1.0988 0.3688,0.6062 0.5082,0.6077 0.7129,0.01 0.14,-0.4103 0.096,-0.9082 -0.099,-1.1063 z m -3.3461,3.9603 c 0,-0.3257 -0.1129,-0.5929 -0.2567,-0.5939 -0.1436,0 -0.4277,0.2634 -0.6312,0.5876 -0.2037,0.3241 -0.089,0.5914 0.257,0.5939 0.3447,0 0.6286,-0.262 0.6309,-0.5876 z m 8.5531,29.9898 0.091,-2.0414 -3.0913,0.2939 c -1.7001,0.1616 -3.4419,0.4003 -3.8704,0.5302 -1.5216,0.4615 -0.03,1.4055 2.8612,1.8098 1.6133,0.2256 2.9314,0.6424 2.9294,0.926 0,0.2837 0.2196,0.5174 0.4925,0.5193 0.2729,0 0.5371,-0.9151 0.5875,-2.0379 z m 3.7393,83.6146 c -0.5807,-0.5845 -0.6492,-0.517 -0.3339,0.3291 0.2183,0.5854 0.547,0.9163 0.7305,0.7353 0.1836,-0.1809 0,-0.6599 -0.3966,-1.0644 z m -44.5815,79.3575 c 0.1594,-22.4516 3.0122,-62.0135 3.2319,-92.9625 0.3011,-1.7906 0.5957,-16.0051 0.7704,-37.1461 0.2546,-30.8374 0.6251,-37.4332 2.1287,-37.8987 1.5641,-0.4841 5.1808,-3.7759 6.5567,-5.9675 0.652,-1.0379 1.6861,-2.0422 2.2984,-2.2317 0.8018,-0.2482 1.0424,-0.7521 0.8599,-1.8007 -0.1424,-0.8177 0.03,-1.4539 0.3925,-1.4514 0.7985,0.01 2.3479,-1.4723 2.3534,-2.245 0,-0.3136 0.7055,-0.7409 1.5629,-0.9496 1.8499,-0.4504 4.6502,-3.0674 5.2478,-4.904 0.2335,-0.7184 0.6888,-1.3043 1.0117,-1.302 0.3231,0 0.4309,-0.2526 0.2401,-0.5664 -0.4343,-0.7141 3.46,-5.0194 5.7376,-6.343 0.9352,-0.5435 1.7037,-1.4636 1.7078,-2.0446 0.012,-0.8574 0.5094,-1.0529 2.6717,-1.0375 1.7746,0.013 2.6622,0.2728 2.6585,0.7793 -0.012,0.8251 2.9248,2.8005 4.2157,2.8415 1.1743,0.037 3.499,2.172 3.3053,3.0351 -0.091,0.4101 0.2985,0.8508 0.8673,0.9795 2.2015,0.4979 1.0204,-9.988 -1.2884,-11.4377 -1.3114,-0.8234 -0.4863,-2.7254 1.5428,-3.5563 l 2.0783,-0.8511 0.05,-5.1722 c 0.092,-10.6486 0.905,-37.2513 1.2309,-40.2433 0.1862,-1.7082 0.5857,-3.1041 0.8878,-3.102 0.3022,0 0.5537,-0.3291 0.5588,-0.7361 0,-0.407 0.9444,-1.3671 2.0874,-2.1337 1.1429,-0.7665 2.0798,-1.6257 2.0818,-1.9094 0,-0.2836 0.4725,-0.5124 1.0457,-0.5083 0.5732,0.01 1.7847,-0.6714 2.6922,-1.5011 0.9076,-0.8297 2.1009,-1.4183 2.652,-1.3082 1.2374,0.2474 1.5173,1.8535 2.6709,15.3352 0.4864,5.6823 1.3558,14.9973 1.9324,20.6999 0.5766,5.7027 1.2088,12.4351 1.4052,14.9609 0.324,4.1686 0.4847,4.6254 1.7404,4.9501 0.7609,0.1967 1.8342,0.8629 2.3852,1.4805 0.9446,1.0588 0.9411,1.2136 -0.06,2.7181 -0.9265,1.3923 -1.0154,2.4293 -0.6985,8.151 0.1997,3.6056 0.4586,7.2224 0.5755,8.0373 0.1172,0.8149 0.4935,3.3486 0.8369,5.6305 0.3438,2.2819 0.8482,6.5118 1.1214,9.3998 0.3935,4.1629 0.7566,5.4968 1.7522,6.4375 0.8027,0.7586 1.1065,1.5374 0.8421,2.1593 -0.2276,0.535 -0.4287,1.3056 -0.4472,1.7125 -0.017,0.407 -0.2554,0.7383 -0.5266,0.7364 -0.2713,0 -0.4972,0.5293 -0.5018,1.1805 0,0.6513 0.2906,1.1862 0.6561,1.1888 0.4782,0 0.4689,0.237 -0.032,0.8336 -0.7252,0.8614 -0.667,3.069 0.1141,4.3349 0.2481,0.4019 0.5306,1.6933 0.6277,2.8697 0.1107,1.3451 0.8587,2.942 2.0144,4.303 1.011,1.1903 1.8438,2.8376 1.851,3.6606 l 0.014,1.4965 0.9289,-1.6854 c 0.5107,-0.927 0.8003,-2.1902 0.6438,-2.8071 -0.1566,-0.617 -0.043,-1.2693 0.254,-1.4495 0.2963,-0.1803 0.5425,-0.8448 0.5469,-1.4768 0,-0.6321 0.2903,-1.1472 0.6351,-1.1447 0.3449,0 0.4764,-0.2431 0.2925,-0.5456 -0.4608,-0.7572 0.9211,-3.5902 1.7482,-3.5843 0.3695,0 0.7402,-0.9123 0.8236,-2.0331 0.084,-1.1208 0.5447,-2.9592 1.0246,-4.0853 0.6842,-1.6056 1.1305,-1.978 2.0679,-1.7257 0.6576,0.1769 1.1975,0.089 1.1994,-0.1948 0,-0.2841 0.7997,-0.8623 1.773,-1.2848 2.255,-0.9792 7.7499,-0.3618 10.8269,1.2165 1.2267,0.6293 2.8881,1.1487 3.6922,1.1544 0.804,0.01 1.4599,0.2717 1.4578,0.5912 0,0.3194 0.6629,0.7532 1.4783,0.964 1.4765,0.3818 2.1406,1.7811 1.9482,4.1041 -0.054,0.6508 0.068,6.1424 0.2732,12.2034 0.4682,13.8915 0.6045,21.4258 0.6065,33.5207 0,8.8781 0.2898,8.4194 0.357,9.4368 0.249,3.7593 0.5796,0.049 0.1542,2.0181 -0.219,1.0136 0.094,1.7412 0.094,1.7412 l -0.879,54.5654 c -0.1428,20.1212 0.4455,27.6326 0.2431,56.1449 l -77.1516,-0.5477 c -20.5213,-8.0104 -12.576,-3.4997 -36.7433,-13.6978 z" />
    </g>
  </g>
</svg>
