<?xml version="1.0" encoding="UTF-8" standalone="no"?>
<svg
   xmlns:dc="http://purl.org/dc/elements/1.1/"
   xmlns:cc="http://creativecommons.org/ns#"
   xmlns:rdf="http://www.w3.org/1999/02/22-rdf-syntax-ns#"
   xmlns:svg="http://www.w3.org/2000/svg"
   xmlns="http://www.w3.org/2000/svg"
   version="1.1"
   id="svg4192"
   viewBox="0 0 626.58722 334.24716"
   height="94.331978mm"
   width="176.83684mm">
  <defs
     id="defs4194">
    <clipPath
       id="clipPath6554"
       clipPathUnits="userSpaceOnUse">
      <rect
         style="opacity:1;fill:none;fill-opacity:1;stroke:none;stroke-width:2;stroke-linecap:round;stroke-linejoin:round;stroke-miterlimit:4;stroke-dasharray:none;stroke-dashoffset:0;stroke-opacity:1"
         id="rect6556"
         width="644.56177"
         height="334.24716"
         x="565.43823"
         y="199.75284" />
    </clipPath>
  </defs>
  <metadata
     id="metadata4197">
    <rdf:RDF>
      <cc:Work
         rdf:about="">
        <dc:format>image/svg+xml</dc:format>
        <dc:type
           rdf:resource="http://purl.org/dc/dcmitype/StillImage" />
        <dc:title></dc:title>
      </cc:Work>
    </rdf:RDF>
  </metadata>
  <g
     transform="translate(-11.42133,-24.798738)"
     id="layer1">
    <g
       id="g4740"
       style="display:inline"
       transform="translate(-571.99146,-174.9541)">
      <path
         style="fill:#000000"
         d="m 1102.2499,340.54333 c 0,-2.45747 11.6602,-14.53005 16.5998,-17.18667 2.9205,-1.57069 5.4184,-3.30847 5.551,-3.86174 0.1327,-0.55328 0.5429,-2.36883 0.9114,-4.03452 0.9423,-4.25747 17.7973,-20.72877 17.7973,-17.39193 0,0.34239 -2.4191,3.52964 -5.3763,7.08277 -5.4317,6.52685 -6.8046,10.94657 -3.7634,12.11369 3.8591,1.48078 -0.063,6.77656 -7.238,9.77471 -5.1035,2.13249 -7.2777,2.10775 -7.2777,-0.0828 0,-1.02218 -3.2503,1.65448 -7.8347,6.45152 -7.6398,7.99488 -9.3694,9.31201 -9.3694,7.13497 z"
         id="path4766" />
      <path
         style="fill:#000000"
         d="m 697.11015,282.85326 c 1.4321,-5.81919 1.09755,-6.61424 -2.97422,-7.06665 l -3.74117,-0.41569 3.50323,-1.06357 c 1.92677,-0.58497 4.03284,-1.81965 4.68009,-2.74372 1.24779,-1.78153 8.54006,-4.92212 11.42896,-4.92212 1.46588,0 1.64155,0.35657 1.18933,2.41497 -0.30416,1.38533 -0.15513,2.64686 0.34969,2.95887 1.73333,1.07125 0.82378,1.97188 -2.57063,2.54534 -1.90296,0.32151 -4.14872,1.37969 -5.00716,2.35936 -0.85609,0.97699 -2.88741,3.27282 -4.51412,5.10185 l -2.95776,3.32549 0.61376,-2.49413 z"
         id="path5378" />
      <path
         id="path4217"
         style="fill:#000000"
         d="m 978.56687,-49.827991 c 0,-0.619321 -0.7158,-1.917182 -1.59106,-2.884167 -1.98753,-2.196222 -4.61396,-2.360362 -3.79942,-0.237417 0.32109,0.836405 0.58353,2.134267 0.58353,2.884166 0,0.813436 0.96968,1.363472 2.4036,1.363472 1.32181,0 2.40335,-0.506735 2.40335,-1.126054 z m -103.34915,40.493437 0,-4.215492 -7.21031,-2.122623 c -7.88722,-2.321807 -10.90843,-2.72911 -10.41507,-1.404077 0.526,1.412839 15.62185,12.466455 16.66394,12.201829 0.52888,-0.134348 0.96144,-2.141108 0.96144,-4.459637 z m 43.50763,19.99827 c -0.45831,-1.391528 -4.57147,-2.244629 -4.57147,-0.948143 0,1.37295 1.1293,2.149888 3.12451,2.149888 1.04425,0 1.67116,-0.520678 1.44696,-1.201745 z m 89.66225,93.835454 c -1.099,-13.67074 -2.8673,-30.69632 -3.929,-37.83462 -1.062,-7.13829 -3.5481,-23.794329 -5.5253,-37.013415 l -3.59439,-24.034701 -6.46338,-0.28426 c -4.42577,-0.194663 -6.46307,0.06727 -6.46307,0.831017 0,0.613441 1.50721,7.663336 3.34951,15.66648 6.26952,27.236685 23.25843,105.587159 23.64523,109.049429 0.042,0.37352 0.279,0.18334 0.5274,-0.42244 0.2484,-0.60587 -0.4477,-12.28672 -1.547,-25.95749 z M 839.16691,121.94434 C 847.7512,93.12612 854.55048,70.6703 862.75543,44.03967 870.61504,18.529384 873.5304,6.466105 872.49087,3.757005 871.76699,1.870726 855.1753,-10.323265 854.47454,-9.483976 c -1.20723,1.445682 -11.42771,56.057829 -12.45188,66.534656 -0.59442,6.08078 -2.77782,26.1978 -4.85184,44.70452 -3.45449,30.82404 -4.25646,40.08375 -3.24693,37.4941 0.20603,-0.52876 2.56554,-8.31598 5.24302,-17.30496 z m -11.15344,33.40822 c 0.30445,-1.98287 1.00881,-8.36408 1.56554,-14.18048 0.55657,-5.81638 1.88791,-18.25898 2.95865,-27.65021 1.07065,-9.39122 1.8103,-18.26003 1.64355,-19.70842 -0.16643,-1.44844 -3.06779,11.17964 -6.44682,28.0624 -3.37888,16.88276 -6.31944,31.37568 -6.53412,32.20648 -0.33981,1.31411 3.66869,4.7713 5.62317,4.84986 0.35014,0.0132 0.88566,-1.59678 1.19003,-3.57963 z m 178.91143,-18.13717 c -2.436,-11.04291 -6.1585,-28.50089 -8.2725,-38.79556 -3.63378,-17.69766 -4.70332,-21.76888 -4.70332,-17.90344 0,2.021 11.43202,76.76913 11.77612,76.99651 0.1318,0.0878 1.3227,0.89423 2.6447,1.79205 2.2892,1.55491 2.4173,1.54591 2.6938,-0.1896 0.1601,-1.0021 -1.7029,-10.85709 -4.1388,-21.89997 z m 12.6607,27.27034 c -0.2913,-1.18972 -1.2506,-7.12006 -2.132,-13.17853 -1.8222,-12.52566 -3.6625,-18.46507 -2.7289,-8.80716 0.326,3.37418 0.697,9.79894 0.8241,14.27723 0.1639,5.71911 0.6307,8.39524 1.5733,8.99223 2.2272,1.41022 3.0216,0.99628 2.4635,-1.28377 z M 845.39289,143.09488 c 5.14029,-26.47209 10.55142,-53.66789 12.62456,-63.4516 0.78453,-3.70134 1.63979,-7.73937 1.90103,-8.97339 0.8471,-4.00272 -1.25597,-1.28279 -2.34158,3.02825 -0.5793,2.30018 -3.4757,12.14973 -6.43658,21.8879 -2.96073,9.7382 -8.21039,27.00723 -11.66568,38.37564 -3.45513,11.36841 -6.45898,22.48839 -6.67526,24.71104 -0.36614,3.76668 -0.14938,4.20669 3.19141,6.47687 1.97144,1.3396 3.88535,2.11682 4.25301,1.72712 0.36775,-0.3897 2.68477,-11.09153 5.14909,-23.78183 z m 177.87531,44.52759 c -1.5372,-9.30474 -2.6144,-12.42747 -3.8575,-11.18448 -0.4518,0.45194 2.0531,12.95101 3.9703,19.81165 1.4594,5.22166 1.3978,0.51469 -0.1111,-8.62717 z m -209.59126,20.36606 c 3.02323,-9.78212 6.78529,-22.11193 8.36035,-27.39956 1.5749,-5.28763 3.5205,-10.12587 4.32383,-10.75165 0.80317,-0.62576 1.20228,-1.55561 0.88655,-2.06632 -0.92103,-1.49017 -7.21599,-4.93637 -7.66894,-4.19836 -0.51465,0.83862 -12.13885,59.92852 -12.13885,61.70656 0,2.52053 0.79721,0.3104 6.23706,-17.29067 z m 204.94186,24.75569 c -3.2694,-42.49863 -4.5509,-56.42697 -5.4195,-58.9048 -0.9879,-2.81812 -4.4953,-5.92247 -5.5262,-4.89147 -0.2802,0.28024 0.019,3.87938 0.6443,7.99806 1.733,11.24769 4.4901,29.84231 6.7411,45.46331 2.3227,16.11878 2.7419,18.26635 3.5662,18.26635 0.3321,0 0.3297,-3.56914 0,-7.93145 z m -76.49,13.9055 c 1.91407,-5.56334 1.8451,-6.55518 -0.39607,-5.69514 -1.29653,0.4975 -4.54594,11.27859 -4.46697,14.82025 0.0528,2.35383 2.48233,-2.20553 4.86304,-9.12511 z m -12.20737,1.37382 c 1.89823,-9.32572 1.91176,-10.3153 0.13194,-9.63233 -1.81493,0.6965 -2.18484,2.11902 -2.9668,11.41767 -0.81662,9.70716 0.68851,8.75937 2.83486,-1.78534 z m -10.9606,4.80374 c 0,-3.36322 0.27516,-8.12212 0.6113,-10.57535 0.51649,-3.76726 0.3623,-4.46043 -0.99152,-4.46043 -2.43312,0 -2.79094,2.10568 -2.04594,12.04244 0.77053,10.27753 2.42616,12.32007 2.42616,2.99334 z m -135.11198,1.70036 c 0.36413,-2.42787 0.52139,-4.53561 0.34953,-4.68371 -0.17184,-0.14886 -2.40912,-0.57395 -4.97161,-0.94609 l -4.65892,-0.67664 3.69766,5.32399 c 2.03361,2.92814 3.97297,5.34038 4.30957,5.36035 0.33646,0.0207 0.90965,-1.95002 1.27377,-4.3779 z m 168.33664,-2.54225 c 3.10115,-5.29119 3.49514,-7.46413 1.35311,-7.46413 -1.03409,0 -2.99578,3.62325 -5.76415,10.64609 -2.59123,6.57419 -0.36614,4.96899 4.41104,-3.18196 z m -43.23175,2.87068 c -0.81397,-12.51379 -1.34838,-15.14179 -3.07834,-15.14179 -2.4328,0 -2.52946,2.56784 -0.44207,11.74013 1.11794,4.91133 2.24756,9.90312 2.51081,11.09284 1.1257,5.09185 1.6041,1.44787 1.0096,-7.69118 z m 54.86879,0.92517 c 1.55825,-2.21834 2.21228,-3.98748 1.67323,-4.52657 -0.48672,-0.48688 -1.33574,-0.57865 -1.88671,-0.20406 -1.33838,0.9101 -7.08028,10.41187 -8.19335,13.5584 -0.74956,2.11923 -0.36742,1.91291 2.48137,-1.34084 1.85207,-2.11489 4.51851,-5.48414 5.92546,-7.48693 z M 829.51348,222.88999 c 4.76166,-23.79432 8.8849,-44.21772 9.16295,-45.3853 0.39454,-1.65591 -0.28533,-2.66043 -3.09051,-4.56659 -1.97809,-1.34405 -3.91112,-2.44371 -4.29599,-2.44371 -1.43951,0 -2.70124,7.8246 -4.651,28.84162 -1.10354,11.89716 -2.85471,29.84471 -3.8912,39.88342 -2.5177,24.38037 -2.91104,29.03318 -2.35839,27.89433 0.2566,-0.52872 4.3624,-20.42937 9.12406,-44.22377 z m 70.22827,33.46746 c -3.9965,-15.15828 -3.48585,-14.02374 -5.76279,-12.80524 -1.06537,0.57017 -1.93688,1.64984 -1.93688,2.39921 0,2.39226 10.06334,25.03319 10.38475,23.3643 0.16955,-0.88165 -1.03857,-6.71269 -2.68508,-12.95827 z m 69.97535,10.36552 c 4.81031,-4.07208 6.53043,-7.78088 3.60875,-7.78088 -1.40703,0 -13.02534,13.08433 -13.02534,14.66899 0,0.91029 1.50489,-0.19069 9.41659,-6.88811 z m -84.1088,-2.92457 c -3.52441,-5.78921 -6.77087,-10.30145 -7.21446,-10.02729 -0.44359,0.27397 1.58066,3.96355 4.4981,8.19899 2.9176,4.23526 5.30455,7.95649 5.30455,8.2691 0,0.6137 2.97505,4.08508 3.50098,4.08508 0.17522,0 -2.56467,-4.73666 -6.08917,-10.52588 z m 8.16071,13.45365 c -0.64555,-1.03333 -1.35967,-1.69283 -1.5873,-1.46521 -0.41191,0.41209 1.68323,3.34438 2.38967,3.34438 0.20419,0 -0.15643,-0.84566 -0.80237,-1.87917 z m 81.59862,-0.76464 c 5.43553,-3.53582 7.02283,-5.07978 7.03243,-6.84044 0.0192,-2.23775 -0.0264,-2.24736 -2.53057,-0.60749 -3.49586,2.2907 -13.52975,11.9858 -12.42069,12.00163 0.4944,0 4.05795,-2.04217 7.91883,-4.5537 z m -82.6636,-11.40921 c -3.37863,-7.86944 -6.41049,-15.06507 -6.73719,-15.99043 -0.77796,-2.2027 -1.87919,-2.12451 -4.06346,0.28905 -1.69756,1.87578 -1.70404,2.09756 -0.13251,4.5667 0.90847,1.42714 4.99603,8.11383 9.08398,14.85911 4.08771,6.74529 7.55812,11.88593 7.71223,11.42391 0.1545,-0.46221 -2.48433,-7.27891 -5.86289,-15.14834 z m 41.2407,16.69683 c 6.91746,-12.97862 16.10569,-35.33616 15.60033,-37.95999 -0.17899,-0.93352 -1.12675,-1.69731 -2.10451,-1.69731 -1.39719,0 -2.99921,3.08846 -7.47955,14.4208 -4.47401,11.31556 -9.46339,26.13153 -9.46339,28.10133 0,0.14321 0.40078,0.25965 0.89094,0.25965 0.48984,0 1.64043,-1.40603 2.55618,-3.12448 z m 8.7132,0 c 4.93281,-7.01662 18.6041,-31.10184 18.6041,-32.77563 0,-1.03898 -0.79854,-1.59409 -2.29318,-1.59409 -2.34551,0 -2.5677,0.30224 -14.34788,19.50646 -3.16956,5.16684 -9.31657,17.41153 -9.31657,18.55811 0,0.21499 1.00848,0.39099 2.24061,0.39099 1.54433,0 3.13291,-1.26943 5.11292,-4.08584 z m -14.05079,-0.0904 c 1.94856,-4.40483 5.23038,-17.24591 8.22127,-32.16682 1.56866,-7.82606 1.61538,-9.05492 0.37454,-9.83954 -0.77989,-0.49314 -1.86479,-0.90325 -2.41128,-0.91133 -1.04161,-0.015 -9.57181,34.63843 -10.4682,42.52671 -0.68835,6.05734 1.68156,6.27365 4.28367,0.39098 z m -5.34096,-9.0422 c 0.72996,-5.68501 1.62899,-15.62826 1.99833,-22.09637 0.59801,-10.48201 0.49648,-11.82713 -0.9348,-12.37647 -0.88334,-0.33896 -1.82998,-0.39251 -2.10338,-0.11909 -0.45152,0.45138 -1.26813,10.56211 -2.71245,33.57989 -0.59258,9.44713 0.13194,15.44569 1.55866,12.89685 0.47656,-0.85188 1.46392,-6.19998 2.19364,-11.885 z m -6.28984,5.2863 c -0.0336,-4.36226 -0.79117,-14.59098 -1.68243,-22.73043 -1.28165,-11.70303 -1.96305,-15.01451 -3.25694,-15.82892 -0.89999,-0.56642 -1.82942,-0.82885 -2.06538,-0.58316 -0.63426,0.65999 2.83791,44.71503 3.6242,45.98729 0.3695,0.59769 1.29509,1.08665 2.0569,1.08665 1.09922,0 1.3727,-1.63799 1.32365,-7.93143 z m -5.68837,6.72965 c 0.0192,-0.66082 -2.21533,-10.43241 -4.94506,-21.71425 -4.47441,-18.49192 -6.19229,-23.00714 -8.04772,-21.15174 -0.32861,0.32874 9.23552,39.14174 10.56302,42.86599 0.23572,0.661 0.87462,1.20178 1.42015,1.20178 0.54513,0 0.99961,-0.54078 1.00961,-1.20178 z m 43.50875,-7.93708 c 17.99072,-20.30143 17.50352,-19.65174 15.92694,-21.2283 -0.78613,-0.78612 -2.0757,-1.18125 -2.86575,-0.87807 -2.62611,1.0079 -24.86233,28.87878 -24.86233,31.1627 0,2.85862 3.88288,-0.12059 11.80114,-9.05614 z m -48.33403,9.49838 c 0,-2.15861 -17.03464,-39.77642 -18.012,-39.77642 -0.66875,0 -1.21556,0.19521 -1.21556,0.43376 0,0.23854 3.02842,7.58397 6.72967,16.32318 3.70125,8.73921 6.72967,16.06222 6.72967,16.27325 0,1.89557 3.21981,7.34806 4.33927,7.34806 0.78605,0 1.42895,-0.27077 1.42895,-0.60183 z m -10.57501,-0.0245 c 0,-0.84641 -20.29238,-32.06017 -20.84263,-32.06017 -1.67884,0 -4.15357,2.31708 -4.15357,3.88893 0,1.05067 5.2315,7.90505 11.71465,15.34845 10.57158,12.13748 13.28155,14.75379 13.28155,12.82279 z m -8.65255,-0.26267 c 0,-1.51325 -20.37791,-24.10632 -21.74253,-24.10632 -1.48897,0 -4.55459,4.29141 -4.06499,5.68991 0.18179,0.51949 5.2311,5.07583 11.22056,10.12528 9.7056,8.1826 14.58696,10.95699 14.58696,8.29113 z m -9.77416,0.0377 c -0.49801,-1.3252 -17.78437,-15.49109 -18.90343,-15.49109 -1.52241,0 -5.04443,5.42442 -4.46922,6.88283 0.27973,0.70905 3.63396,3.11978 7.45411,5.35753 5.54531,3.24809 7.88241,4.07189 11.5923,4.08583 2.5557,0 4.5025,-0.36611 4.32624,-0.8351 z m -15.22187,0.19408 c 0,-1.07064 -7.77032,-5.11578 -9.82041,-5.11257 -1.52481,0 -3.63908,2.63797 -3.63908,4.53579 0,0.44771 3.02834,0.93761 6.72975,1.08873 3.70116,0.15074 6.72974,-0.0791 6.72974,-0.51195 z m 106.39734,-9.0831 c 11.41748,-10.42939 13.31531,-13.33172 8.71663,-13.33172 -1.0833,0 -3.39456,1.08685 -5.13612,2.41525 -5.01195,3.82279 -22.93865,19.79437 -23.29295,20.75252 -0.17523,0.47672 1.55441,0.86356 3.84559,0.85941 3.95873,0 4.74838,-0.53927 15.86685,-10.69546 z m 22.42049,10.72825 c 1.12154,-0.70905 1.18067,-1.15995 0.27116,-2.06949 -0.90903,-0.90915 -2.00849,-0.90935 -5.03931,-7.5e-4 -2.13203,0.63876 -3.87632,1.57675 -3.87632,2.08418 0,1.18671 6.7628,1.17635 8.64447,-0.0189 z m -8.46748,-2.631 c 5.36449,-2.36268 7.43115,-4.59138 5.78487,-6.23785 -0.90902,-0.90897 -15.57576,7.61902 -15.57576,9.05652 0,1.08307 2.69189,0.30808 9.79089,-2.81867 z m -13.15576,5.48999 c 0.32693,-0.52872 0.13562,-0.96154 -0.42375,-0.96154 -0.56025,0 -1.01825,0.43282 -1.01825,0.96154 0,0.52872 0.19067,0.96136 0.42391,0.96136 0.23308,0 0.69132,-0.43264 1.01809,-0.96136 z m -62.35233,-1.6248 c -1.34222,-1.34235 -2.21573,0.4006 -1.29622,2.58616 l 1.01113,2.40337 0.39174,-2.24567 c 0.21532,-1.23513 0.16771,-2.46988 -0.10745,-2.74386 z m -32.34428,4.11957 c 0,-0.21405 -1.91576,-1.51212 -4.2571,-2.88424 -3.48722,-2.04368 -5.47634,-2.49477 -10.99917,-2.49477 -6.50915,0 -9.78817,1.32821 -6.1955,2.50965 0.95872,0.31523 3.04106,1.16768 4.62756,1.89406 2.53882,1.16278 16.82421,1.99072 16.82421,0.9753 z m -24.99603,-1.15562 c 0,-0.20784 -0.64915,-0.37779 -1.44208,-0.37779 -0.79333,0 -1.44208,0.41905 -1.44208,0.9312 0,0.51214 0.64875,0.6821 1.44208,0.37779 0.79293,-0.30431 1.44208,-0.72337 1.44208,-0.9312 z m 100.59182,0.50479 c 4.03442,-2.49344 4.123,-3.76721 0.26196,-3.76721 -2.97393,0 -8.56061,3.17988 -8.56061,4.87252 0,1.6069 4.98426,0.94308 8.29865,-1.10531 z m 30.6376,0 4.80671,-2.26601 -4.23222,-0.32938 c -4.50002,-0.35028 -15.47622,3.08134 -15.47622,4.83861 0,1.64458 9.77616,0.17335 14.90173,-2.24322 z m -16.11873,-3.04026 c 0.26412,-0.92536 1.29933,-1.68246 2.30101,-1.68246 2.64004,0 19.10531,-10.43297 19.10531,-12.10582 0,-3.25771 -3.30743,-2.2566 -13.22058,4.00161 -5.68325,3.58801 -10.53733,6.6865 -10.78641,6.88547 -0.24892,0.19898 0.18275,0.76426 0.96152,1.25624 1.12226,0.7098 0.97704,0.89748 -0.7038,0.90916 -4.84928,0.0339 -8.75368,3.72405 -6.41457,6.06318 0.95479,0.95476 8.22767,-3.4695 8.75752,-5.32738 z m 50.24806,4.46985 c 0,-1.37495 -0.8681,-7.75619 -1.9292,-14.1804 -1.0606,-6.42421 -4.7474,-30.28331 -8.1926,-53.02008 -6.4926,-42.84948 -8.23398,-54.12371 -12.99364,-84.12138 -2.76294,-17.41279 -11.86707,-77.1025 -14.81028,-97.100188 -6.559,-44.564559 -5.51354,-39.980994 -9.29001,-40.736301 -6.8256,-1.365073 -22.00425,-0.403892 -22.00425,1.393412 0,0.437263 1.89047,2.095829 4.20133,3.685676 l 4.20133,2.890611 -0.20027,9.893945 -0.20052,9.893946 -3.11803,-0.32106 c -2.15051,-0.2214 -6.84025,-3.130647 -15.11009,-9.373531 -11.98485,-9.047139 -11.99525,-9.05249 -17.65466,-9.05249 l -5.66237,0 L 912.04353,9.227514 911.75036,4.660927 898.05067,4.39419 C 890.51583,4.247406 884.3509,4.288106 884.3509,4.48426 c 0,0.441294 -17.44559,87.78085 -27.78401,139.09712 -6.64477,32.98352 -18.53753,93.91627 -25.13125,128.76258 -1.14403,6.04584 -2.29854,11.56184 -2.56555,12.25769 -0.267,0.69586 -0.0712,1.2651 0.43464,1.2651 0.50592,0 2.09306,-2.76026 3.52682,-6.13366 5.82975,-13.71705 18.93511,-29.67281 31.22865,-38.02119 8.3841,-5.69358 17.81525,-10.19669 27.57694,-13.16732 7.68382,-2.3383 10.1279,-2.61693 23.47834,-2.67656 17.24059,-0.0769 25.46827,1.63307 38.85143,8.07505 23.3884,11.25807 39.30078,26.60615 49.20339,47.45816 2.1843,4.59949 4.08,7.37802 5.066,7.4255 0.9971,0.0471 1.1345,0.254 0.3741,0.56095 -3.2212,1.29977 -0.2527,7.05431 3.6391,7.05431 2.4285,0 2.8503,-0.3697 2.8503,-2.50005 z m -33.99195,2.9809 c 0.79309,-0.79327 3.10619,-1.44221 5.1402,-1.44221 2.0341,0 4.38265,-0.26247 5.2191,-0.58356 1.63139,-0.62595 2.07867,-3.76495 0.66131,-4.64094 -1.1017,-0.68078 -11.63871,4.11297 -11.63871,5.29497 0,0.4901 -0.64891,0.89088 -1.44216,0.89088 -0.79333,0 -1.44208,0.43263 -1.44208,0.96154 0,1.42149 1.85455,1.16692 3.50234,-0.48068 z m -38.24997,0.58601 c 0.95168,-0.60296 1.00448,-1.01185 0.19427,-1.51249 -1.37743,-0.85132 -3.90216,0.0395 -3.90216,1.37701 0,1.19896 1.91872,1.26924 3.70789,0.13567 z m -47.96869,-3.88422 c -4.17309,-4.94901 -6.46562,-6.44663 -7.8104,-5.10183 -0.64427,0.64404 10.02068,9.84207 11.41163,9.84207 0.21764,0 -1.40303,-2.13317 -3.60123,-4.74024 z m -91.73561,0.48218 c 0.7583,-5.05717 0.16298,-6.31718 -2.9808,-6.31718 -1.29075,0 -2.34679,-0.43262 -2.34679,-0.96135 0,-0.56076 3.19852,-0.96153 7.67284,-0.96153 9.05837,0 8.00606,1.94663 10.13377,-18.74711 0.81537,-7.93124 3.00453,-28.42579 4.8646,-45.54307 1.86006,-17.11731 3.24437,-31.82653 3.07642,-32.68718 -0.1681,-0.86066 -2.75901,6.65506 -5.75798,16.70156 -2.99878,10.04649 -8.47919,28.43304 -12.17873,40.85889 -3.69953,12.42596 -7.83826,28.19819 -9.19712,35.04918 -2.71889,13.70726 -2.99963,12.16349 2.82828,15.55742 2.9937,1.7435 3.20599,1.58241 3.88551,-2.94963 z m 150.41726,2.60518 c 0,-0.6772 -0.44791,-1.23136 -0.99528,-1.23136 -1.63987,0 -5.75495,3.0348 -5.24126,3.86576 0.70411,1.13941 6.23654,-1.19746 6.23654,-2.6344 z m -105.91606,0.0735 c -0.44807,-2.32688 -3.07402,-2.30974 -3.52322,0.0226 -0.38878,2.01842 1.77646,3.85199 3.04771,2.58068 0.45055,-0.45052 0.66466,-1.62216 0.47551,-2.60367 z m 127.54722,2.21042 c 1.67395,-0.8939 1.71332,-1.07082 0.30485,-1.36722 -1.55058,-0.32635 -7.51516,2.20044 -7.51516,3.18347 0,0.65798 4.87776,-0.57075 7.21031,-1.81625 z m -10.11398,0.70754 c 5.05907,-2.02426 4.90152,-3.26052 -0.41583,-3.26052 -4.90857,0 -9.17847,1.63723 -9.17847,3.51923 0,1.77611 4.83463,1.64572 9.5943,-0.25871 z m -27.38003,0.58507 c 0.3267,-0.52873 0.13562,-0.96135 -0.42399,-0.96135 -0.56001,0 -1.01808,0.43262 -1.01808,0.96135 0,0.52872 0.19075,0.96135 0.42383,0.96135 0.23323,0 0.69147,-0.43263 1.01824,-0.96135 z M 893.36614,298.578 c -1.65115,-1.43864 -4.71309,-4.01913 -6.80408,-5.73457 -2.09114,-1.71543 -4.06107,-3.37773 -4.37728,-3.6939 -1.04145,-1.04163 -9.3705,-1.43374 -9.3705,-0.4413 0,1.43995 5.75159,4.18175 10.05237,4.79187 2.96849,0.42094 3.91929,1.03201 4.33192,2.78343 0.57601,2.44502 4.19605,4.89475 7.24687,4.90418 1.65667,0 1.50729,-0.35632 -1.0793,-2.60971 z m -7.63125,1.80475 c 1.00168,-1.62066 -6.57493,-5.11521 -12.19953,-5.62679 -3.19053,-0.29017 -5.52795,-0.1187 -5.52795,0.40719 0,0.85772 13.58191,5.98122 16.04632,6.05339 0.62978,0.0189 1.38631,-0.35688 1.68116,-0.83379 z m -16.94255,-0.57508 c -1.09506,-1.03747 -13.06407,-5.28742 -14.89085,-5.28742 -1.83862,0 -2.23773,0.50742 -2.23773,2.84523 l 0,2.84524 7.93147,0.27924 c 7.2992,0.25702 9.97876,0.0584 9.19711,-0.68229 z m -59.42974,-2.88405 c 0,-3.68524 0.28497,-4.32627 1.92287,-4.32627 1.42153,0 1.92272,-0.64084 1.92272,-2.45859 0,-2.29823 -0.26698,-2.43955 -4.08591,-2.16313 l -4.08591,0.29564 -0.29331,5.1252 c -0.29754,5.19887 0.8164,7.85342 3.29514,7.85342 0.92869,0 1.3244,-1.29241 1.3244,-4.32627 z m 181.94269,3.37264 c 4.43345,-1.30297 4.69949,-2.89593 0.48064,-2.88047 -4.08284,0.0189 -13.21298,2.46254 -14.56368,3.90419 -1.27845,1.36458 8.33433,0.66571 14.08304,-1.02372 z m 21.87161,0.44281 c 0,-1.33859 -0.6676,-2.68979 -1.4835,-3.00296 -2.0774,-0.79704 -2.6947,0.13567 -1.9785,2.98844 0.8099,3.22681 3.462,3.23792 3.462,0.0189 z m -71.33503,1.27998 c 1.8147,-1.81474 1.34854,-2.86371 -0.76916,-1.73051 -1.05746,0.56603 -1.92272,1.44655 -1.92272,1.95662 0,1.27319 1.30181,1.16391 2.69188,-0.22611 z m -129.59513,-3.38961 c 0,-1.90762 -0.2809,-3.18742 -0.62414,-2.84391 -0.88129,0.88108 -0.97316,7.30132 -0.0969,6.75884 0.3964,-0.24551 0.72096,-2.0073 0.72096,-3.91493 z m 80.27582,4.54334 c -0.32669,-0.52891 -1.43391,-0.96135 -2.46008,-0.96135 -1.02617,0 -1.86599,0.43244 -1.86599,0.96135 0,0.52872 1.10698,0.96135 2.46009,0.96135 1.3955,0 2.20308,-0.41624 1.86598,-0.96135 z m -14.90133,0 c -1.92215,-1.2423 -15.38213,-1.2423 -15.38213,0 0,0.56867 3.43505,0.95532 8.41211,0.94665 5.78631,-0.0189 7.96186,-0.30562 6.97002,-0.94665 z m 75.93113,0.48067 c 0.0264,-1.41696 -6.00027,-1.17163 -6.47867,0.26342 -0.2898,0.86959 0.58786,1.14846 3.02594,0.96154 1.88895,-0.14509 3.44257,-0.69623 3.45273,-1.22496 z m -147.07391,0.48068 c 0,-0.52873 -0.43257,-0.96135 -0.96128,-0.96135 -0.52887,0 -0.96144,0.43262 -0.96144,0.96135 0,0.52873 0.43257,0.96135 0.96144,0.96135 0.52871,0 0.96128,-0.43262 0.96128,-0.96135 z m -4.32623,-1.44203 c 0,-0.96945 -0.54076,-1.94286 -1.20177,-2.16313 -0.76102,-0.25381 -1.20174,0.53927 -1.20174,2.16313 0,1.62368 0.44072,2.41676 1.20174,2.16314 0.66101,-0.22046 1.20177,-1.19388 1.20177,-2.16314 z m 211.02468,2.40338 c 0,-0.52873 -0.649,-0.96135 -1.4421,-0.96135 -0.7932,0 -1.4422,0.43262 -1.4422,0.96135 0,0.52873 0.649,0.96135 1.4422,0.96135 0.7931,0 1.4421,-0.43262 1.4421,-0.96135 z m -18.1174,-1.44203 c -0.46599,-2.69977 -0.67475,-2.7578 -2.94176,-0.81664 -2.74645,2.35157 -2.5281,3.40694 0.6297,3.04366 2.04146,-0.23497 2.56811,-0.74221 2.31206,-2.22702 z m -19.74676,0.20972 c 0.83629,-0.83623 -8.4626,-0.92989 -10.60743,-0.1074 -0.83646,0.32108 -1.52057,0.87769 -1.52057,1.23721 0,0.83492 11.20737,-0.20972 12.128,-1.13037 z m 6.63453,2.1686 c 0.33517,-0.54248 1.72148,-0.86695 3.08034,-0.72092 1.45016,0.1564 2.66492,-0.2913 2.94065,-1.08232 0.3659,-1.04896 -0.21124,-1.21139 -2.60371,-0.73298 -3.70837,0.74184 -8.14998,3.52263 -5.62621,3.52263 0.87959,0 1.87375,-0.44374 2.20893,-0.98641 z m -19.98433,0.40568 c -0.31957,-0.31938 -1.14867,-0.35367 -1.84262,-0.0754 -0.76709,0.30695 -0.53929,0.53475 0.58073,0.58092 1.01353,0.0414 1.5813,-0.18654 1.26189,-0.50498 z m 7.71119,1.84093 c -0.92535,-0.24175 -2.4396,-0.24175 -3.36495,0 -0.92536,0.24175 -0.16771,0.4396 1.68251,0.4396 1.85047,0 2.60763,-0.19785 1.68244,-0.4396 z m -15.62265,0.47125 c 0.66499,-0.69398 -0.2242,-0.79591 -2.88399,-0.33106 -2.11515,0.36969 -4.27823,1.12359 -4.80719,1.67529 -0.66475,0.69398 0.22427,0.79592 2.88423,0.33107 2.11515,-0.36969 4.27822,-1.12358 4.80695,-1.6753 z m -106.23331,0.19144 c 0,-1.48687 -0.64083,-1.92289 -2.82742,-1.92289 -1.55506,0 -3.09475,0.43263 -3.42153,0.96154 -1.0124,1.6378 0.466,2.88405 3.42153,2.88405 2.18659,0 2.82742,-0.43582 2.82742,-1.9227 z m 49.03086,2.11584 c 0,-1.05707 -6.07035,-3.16047 -10.23848,-3.54788 -4.48082,-0.41642 -3.02842,0.89107 3.02802,2.72597 5.60492,1.69809 7.21046,1.88106 7.21046,0.82191 z m -17.78572,-0.10363 c -3.08507,-1.20404 -16.81013,-3.30764 -17.44447,-2.6734 -0.31829,0.31826 -0.32253,1.24645 -0.0168,2.06233 0.46175,1.20329 2.34574,1.47199 9.97308,1.42262 5.57251,-0.0358 8.62037,-0.36668 7.48091,-0.81155 z m -18.91319,-1.82699 c 0.29581,-2.08719 0.0392,-2.20138 -4.31759,-1.92289 -3.42216,0.21877 -4.71206,0.71754 -4.93833,1.90914 -0.21428,1.1298 0.50304,1.73955 2.39487,2.03557 4.94833,0.77387 6.53083,0.30751 6.86105,-2.02182 z m 131.20093,2.32368 c 2.28014,-0.0622 4.05227,-0.6284 4.30215,-1.37589 0.3311,-0.98962 -0.78653,-1.16598 -5.05019,-0.79666 -3.01161,0.26077 -5.6971,0.69566 -5.96786,0.96662 -0.86598,0.86601 0.75428,2.59915 1.81646,1.94268 0.56225,-0.34746 2.76701,-0.67891 4.89944,-0.73675 z m -8.21159,-0.3452 c 0.26645,-0.81117 -0.72492,-1.20178 -3.05042,-1.20178 -2.48329,0 -3.44488,0.41962 -3.44488,1.50308 0,1.84733 5.87952,1.57467 6.4953,-0.3013 z m 30.03744,0.24025 c 0,-1.32182 -0.4326,-2.40338 -0.9614,-2.40338 -0.5287,0 -0.9613,1.08156 -0.9613,2.40338 0,1.32199 0.4326,2.40356 0.9613,2.40356 0.5288,0 0.9614,-1.08157 0.9614,-2.40356 z m -48.34437,2.3037 c 7.32745,-0.032 10.85011,-0.65837 10.85011,-1.92723 0,-1.00959 -5.07732,-1.10078 -13.31835,-0.23949 -4.16629,0.43546 -5.90937,1.01939 -5.90937,1.97961 0,0.74899 0.4171,1.10399 0.92703,0.78894 0.50968,-0.31505 3.86255,-0.58582 7.45058,-0.60183 z m -167.00654,-2.67226 c 0,-3.01897 -0.41388,-3.87028 -2.16319,-4.44818 l -2.16304,-0.7149 2.16304,-0.42565 c 2.99692,-0.58939 3.11224,-6.44588 0.1579,-8.02696 -2.41489,-1.29241 -2.21925,-1.54717 -3.3551,4.37036 -1.2291,6.40404 -0.46926,9.95908 2.4762,11.58445 1.32184,0.7294 2.51154,1.34159 2.64384,1.36025 0.13246,0.0189 0.24032,-1.64591 0.24032,-3.69937 z m 233.61711,2.35231 c 0,-0.69718 -0.6489,-1.80626 -1.442,-2.46443 -1.557,-1.29223 -1.7385,-0.72299 -0.8389,2.63307 0.5937,2.21495 2.2809,2.0904 2.2809,-0.1677 z m -13.8326,-1.74332 c -0.3164,-2.24736 -0.7582,-4.95109 -0.9821,-6.00873 -0.224,-1.05745 -0.4433,-3.11242 -0.4872,-4.56651 -0.046,-1.45409 -0.456,-2.64381 -0.9156,-2.64381 -0.8464,0 -1.2627,15.25575 -0.4524,16.58378 0.2419,0.39663 1.1087,0.7211 1.9263,0.7211 1.198,0 1.3747,-0.7929 0.911,-4.08583 z m -64.03966,3.12448 c 0,-0.52872 -0.43263,-0.96135 -0.96136,-0.96135 -0.52888,0 -0.96135,0.43263 -0.96135,0.96135 0,0.52873 0.43247,0.96135 0.96135,0.96135 0.52873,0 0.96136,-0.43262 0.96136,-0.96135 z m -5.04723,1.17428 c 0.66099,-0.23026 1.2018,-0.81608 1.2018,-1.30165 0,-0.71998 -3.13332,-0.70509 -9.8545,0.0471 -0.39623,0.0452 -0.72092,0.5308 -0.72092,1.081 0,0.95306 6.77583,1.07893 9.37362,0.17335 z m -145.89075,-4.05852 c 0,-3.63192 -0.35241,-4.80694 -1.44209,-4.80694 -1.05993,0 -1.44206,1.10399 -1.44206,4.16611 0,2.29125 0.28837,4.45439 0.64096,4.80694 1.56367,1.56356 2.24319,0.30129 2.24319,-4.16611 z m 22.11192,3.36492 c 0,-1.32182 -0.16635,-2.40338 -0.36854,-2.40338 -0.20276,0 -0.57538,1.08156 -0.82814,2.40338 -0.25268,1.322 -0.0867,2.40337 0.36854,2.40337 0.45551,0 0.82814,-1.08137 0.82814,-2.40337 z m 157.97934,2.01673 c 0.71059,-1.85204 -0.15635,-2.49741 -3.356,-2.49741 -2.08306,0 -2.72396,0.45241 -2.72396,1.9227 0,1.47972 0.6409,1.92271 2.78141,1.92271 1.52945,0 3.01386,-0.60655 3.29855,-1.348 z m -7.27584,-0.33428 c 0.45351,-1.38059 -7.9173,-1.68452 -13.34516,-0.48443 -3.21492,0.71093 -3.2006,0.72299 1.56242,1.31276 6.93842,0.85922 11.3297,0.55039 11.78274,-0.82833 z m -115.13205,0.72092 c 0,-0.52872 -2.16308,-0.96135 -4.80687,-0.96135 -2.64388,0 -4.80704,0.43263 -4.80704,0.96135 0,0.52873 2.16316,0.96136 4.80704,0.96136 2.64379,0 4.80687,-0.43263 4.80687,-0.96136 z m -13.01983,0.0659 c 0.30437,-0.49216 0.0884,-1.18181 -0.47855,-1.53247 -1.36735,-0.84509 -5.72943,0.28509 -5.72943,1.48443 0,1.20046 5.4697,1.24286 6.20798,0.0471 z m -40.23439,-0.62576 c -0.321,-0.83643 -0.58356,-3.432 -0.58356,-5.7683 0,-2.33611 -0.43257,-4.2475 -0.96128,-4.2475 -0.53429,0 -0.96144,2.56354 -0.96144,5.76829 0,4.65714 0.29757,5.76829 1.54484,5.76829 1.01391,0 1.34442,-0.52287 0.96144,-1.52078 z m 188.7749,1.08213 c 1.62707,-1.96057 0.41759,-3.40694 -2.84919,-3.40694 -3.03666,0 -4.31023,1.24814 -3.48025,3.4109 0.69307,1.80626 4.82936,1.80361 6.32944,0 z m -7.82945,-1.31917 c 0.23076,-1.56922 -0.18659,-2.08777 -1.68267,-2.08777 -1.28845,0 -1.98961,0.62125 -1.98961,1.76255 0,3.6549 3.14124,3.93302 3.67228,0.32522 z m -111.82823,1.8396 c 2.16892,-0.49047 0.88655,-0.81475 -5.17221,-1.30787 -8.74487,-0.71187 -13.2497,0.38496 -5.40312,1.31541 6.38136,0.75672 7.19774,0.75616 10.57533,-0.0189 z m -79.31926,-0.0584 c 1.233,-0.77952 1.16456,-1.11474 -0.48081,-2.35816 -2.72483,-2.05912 -5.28291,-1.89369 -5.28291,0.34162 0,1.56865 0.90863,2.23699 3.84559,2.82846 0.26427,0.0527 1.12755,-0.31203 1.91813,-0.81192 z m 156.71087,0.93817 c -1.86391,-1.20461 -2.88423,-1.20461 -2.88423,0 0,0.52872 0.9736,0.95475 2.16331,0.94665 1.74893,-0.0189 1.88711,-0.19314 0.72092,-0.94665 z m -3.84543,0 c 0,-0.52873 -0.64915,-0.96135 -1.44224,-0.96135 -0.79325,0 -1.442,0.43262 -1.442,0.96135 0,0.52872 0.64875,0.96135 1.442,0.96135 0.79309,0 1.44224,-0.43263 1.44224,-0.96135 z m 69.21969,0.59844 c 0,-1.77517 -1.8377,-3.1226 -5.0471,-3.70107 -2.2526,-0.40587 -2.6438,-0.15074 -2.6438,1.72334 0,2.21044 1.3223,2.97375 5.5278,3.19044 1.2504,0.0641 2.1631,-0.44714 2.1631,-1.21271 z m -48.06917,0.36291 c 0,-0.57244 -3.20893,-0.91538 -7.93163,-0.84774 -5.70157,0.081 -7.12069,0.32014 -5.04723,0.84774 4.32287,1.10003 12.97886,1.10003 12.97886,0 z m 60.12777,-27.8138 c -0.3043,-0.49217 -0.1131,-1.16674 0.4239,-1.49874 0.5374,-0.3322 0.977,0.0697 0.977,0.89483 0,1.68868 -0.577,1.9374 -1.4009,0.60391 z m 7.0934,34.22312 c -0.1073,-0.9084 -0.094,-13.95146 0.019,-14.82143 0.049,-0.39663 0.4232,-0.19765 0.8299,0.44224 0.8695,1.36835 0.7382,13.51299 -0.1565,14.40708 -0.3371,0.33709 -0.647,0.32466 -0.6888,-0.0283 z m 6.3092,-0.88127 c -0.3771,-3.30481 -1.0081,-6.65767 -1.4025,-7.45075 -0.3942,-0.79309 -0.7837,-3.57332 -0.8653,-6.17832 -0.081,-2.6048 -0.791,-6.02417 -1.5762,-7.59848 -0.7855,-1.5743 -1.428,-4.06812 -1.428,-5.54199 0,-1.47387 -0.4787,-2.97562 -1.0639,-3.33722 -0.7547,-0.46636 -0.7134,-0.87449 0.1413,-1.40283 1.5794,-0.97605 -1.5447,-22.30648 -6.8958,-47.08397 -2.1129,-9.78204 -5.3349,-24.6785 -7.1602,-33.10315 -1.8253,-8.42468 -3.5863,-15.56298 -3.9133,-15.8629 -0.327,-0.29995 -0.3001,3.99723 0.058,9.54924 1.2319,19.01242 7.2994,93.73182 7.9043,97.34057 0.6435,3.83861 2.2754,4.97143 2.2754,1.57957 0,-1.4522 0.4306,-1.86052 1.5208,-1.44221 0.8364,0.32108 2.7833,0.58356 4.3263,0.58356 2.0364,0 2.8015,0.46107 2.7907,1.68245 -0.019,1.3026 -0.2001,1.38984 -0.8362,0.38609 -1.1367,-1.79363 -4.34,-0.9915 -4.7604,1.19217 -0.1905,0.98811 0.2373,2.16615 0.9503,2.618 0.8533,0.54097 0.9093,0.82662 0.1638,0.83623 -0.6519,0 -1.4197,2.31407 -1.8095,5.43346 -0.5601,4.4804 -0.4054,5.57064 0.8921,6.29684 0.863,0.48293 1.5692,1.50552 1.5692,2.27242 0,0.7669 0.6889,1.39435 1.5308,1.39435 0.8419,0 2.6308,0.86525 3.9752,1.92271 3.8656,3.04063 4.3604,2.48081 3.6116,-4.08584 z m -191.24389,28.63251 c 1.76525,-1.33519 1.69716,-1.4132 -1.25837,-1.44203 -2.14995,-0.0207 -3.12443,0.41925 -3.12443,1.4115 0,1.83452 1.9796,1.84827 4.3828,0.0302 z m 5.78031,3.09396 c 2.84055,-1.71845 5.17677,-3.44896 5.19173,-3.84559 0.0624,-1.67492 -4.46129,-0.50876 -8.78136,2.26337 -8.20903,5.26765 -4.90745,6.72287 3.58963,1.58222 z m 122.44286,5.13914 c 2.70444,-3.79811 2.50097,-5.54576 -0.84814,-7.27759 -3.19549,-1.6525 -15.42982,-2.05329 -15.42982,-0.50536 0,0.52872 0.32429,0.9653 0.72092,0.96983 0.39662,0 3.24373,2.16785 6.3268,4.80695 3.08322,2.63909 5.97402,4.79846 6.42401,4.79846 0.44976,0 1.71277,-1.25643 2.80623,-2.79229 z m -119.18272,-3.21644 c 0.068,-1.36892 -1.48961,-0.71168 -4.73366,1.99638 -2.45665,2.05102 -3.08267,3.16631 -2.55274,4.54748 0.62666,1.6329 1.05497,1.41791 3.97633,-1.99638 1.80078,-2.10453 3.29022,-4.15084 3.31007,-4.54748 z m 111.25485,12.57086 c 1.2238,-1.14977 2.22493,-2.79135 2.22493,-3.64812 0,-0.85677 -3.51266,-4.45873 -7.80633,-8.00416 -6.22822,-5.14329 -8.46299,-6.44644 -11.05589,-6.44644 -1.78742,0 -3.24958,0.25042 -3.24958,0.55661 0,0.30619 2.73973,3.69805 6.08844,7.53762 3.34847,3.83937 6.91746,8.11797 7.93139,9.50761 2.25813,3.09566 3.03106,3.16104 5.86704,0.49688 z m -107.37318,0.1677 c 0.56602,-1.05764 0.86463,-1.92289 0.66347,-1.92289 -0.20107,0 -1.14835,0.86525 -2.10562,1.92289 -0.95696,1.05745 -1.25557,1.9227 -0.66331,1.9227 0.59202,0 1.53953,-0.86525 2.10546,-1.9227 z m 89.40919,3.48249 c 0,-0.19953 -0.75709,-0.95663 -1.68244,-1.68245 -1.52497,-1.19576 -1.5589,-1.16184 -0.3631,0.36309 1.25581,1.60144 2.04554,2.11057 2.04554,1.31936 z m -16.01136,0.60298 c 0.24532,-0.39683 -0.36005,-2.2355 -1.34502,-4.08584 l -1.79093,-3.36454 -0.0416,3.445 c -0.0224,1.89481 0.24812,3.73347 0.6005,4.08583 0.84958,0.84962 2.02369,0.81306 2.57578,-0.081 z m 25.46579,3.9935 c 1.24589,-0.87242 2.06426,-2.30728 1.89655,-3.32459 -0.3831,-2.32292 -18.93079,-23.0208 -20.62931,-23.0208 -2.24077,0 -1.4612,1.97301 4.33367,10.96829 3.09675,4.80714 6.66614,10.57543 7.93139,12.81865 2.54602,4.51319 3.26886,4.79903 6.4677,2.55845 z m -5.609,1.2031 c 0,-0.18277 -0.97344,-1.1558 -2.16316,-2.16295 l -2.16315,-1.8315 1.8315,2.16313 c 1.72108,2.03275 2.49481,2.60066 2.49481,1.83132 z m -3.06914,2.93983 c 0.2538,-1.27923 -9.60654,-18.55792 -11.36379,-19.91308 -0.34294,-0.26437 -1.63875,-2.53565 -2.87952,-5.04719 -1.24076,-2.51172 -2.61195,-4.56651 -3.04722,-4.56651 -0.43487,0 -0.79085,0.16393 -0.79085,0.36329 0,0.5323 2.76686,7.35164 4.33856,10.69262 0.74628,1.58617 2.93,6.99401 4.85303,12.01726 1.92296,5.02326 3.71109,9.48312 3.97378,9.91067 0.66699,1.08646 4.55667,-1.64892 4.91601,-3.45706 z m -8.64687,-0.92461 c -1.05441,-2.77533 -2.4804,-6.12819 -3.1686,-7.45075 -0.68811,-1.32238 -2.45744,-5.56367 -3.93168,-9.42471 -1.47425,-3.86123 -3.03514,-7.23953 -3.46857,-7.50747 -1.96809,-1.21629 -0.47824,5.7585 2.51081,11.75479 1.81454,3.64021 4.22525,9.10607 5.35656,12.14653 1.1317,3.04026 2.63387,5.52786 3.33815,5.52786 0.98584,0 0.83926,-1.16203 -0.63667,-5.04625 z m -2.47872,6.77147 c 0.71859,-2.1554 -3.37528,-10.37776 -5.16701,-10.37776 -0.92144,0 -1.89728,0.35933 -2.16884,0.79837 -0.51161,0.82812 1.59186,9.77159 2.73221,11.61685 0.76628,1.23966 3.98633,-0.18465 4.60364,-2.03746 z m -7.33433,-0.0189 c -0.92951,-4.64771 -2.50569,-5.6443 -2.50569,-1.58428 0,3.46986 0.56945,4.67881 2.20324,4.67881 0.52481,0 0.65499,-1.33161 0.30245,-3.09453 z m -40.93753,1.58994 c 1.07841,-2.836 1.27829,-9.73165 0.25268,-8.70604 -0.7514,0.75144 -4.11972,9.29375 -4.12108,10.45107 0,1.82358 3.03218,0.45504 3.8684,-1.74503 z m -108.6669,-27.81775 2.84218,-20.18913 -2.00508,-1.68246 c -4.02305,-3.37565 -4.67591,-2.36946 -4.67896,7.21052 0,4.89098 -0.19871,17.11268 -0.43818,27.1592 -0.49049,20.57182 -0.29552,20.00259 4.28004,-12.49813 z m 118.94579,24.75583 c -0.22028,-1.45428 -0.40039,-0.26455 -0.40039,2.64381 0,2.90817 0.18083,4.09789 0.40039,2.64381 0.22027,-1.45409 0.22027,-3.83354 0,-5.28762 z m -100.72838,-16.32149 0.0562,-20.40732 -2.43358,-1.59446 c -1.3383,-0.87694 -2.56062,-1.42771 -2.71618,-1.22384 -0.15621,0.20369 0.59917,11.83506 1.67729,25.8472 2.29296,29.80603 3.33117,29.00936 3.41709,-2.62158 z m 44.17988,21.92001 c 5.88073,-8.25439 7.3024,-13.13916 1.63979,-5.63395 -4.46634,5.91961 -9.23144,13.01612 -9.23144,13.74815 0,1.74823 2.37007,-0.78498 7.59165,-8.1142 z m 230.61885,5.49168 c 1.1661,-2.76006 0.1337,-4.44252 -1.4892,-2.42712 -0.5277,0.65498 -1.2691,2.70524 -1.6476,4.55597 -0.5984,2.92607 -0.5108,3.17687 0.6729,1.9227 0.7486,-0.79309 1.8573,-2.6163 2.4639,-4.05155 z m -22.6499,1.40774 c 0.4095,-5.83839 -0.4087,-8.11703 -2.2524,-6.27346 -1.2276,1.22759 -0.2764,11.80151 1.0614,11.80151 0.4416,0 0.9777,-2.48761 1.191,-5.52805 z m -30.5849,-1.22948 c 6.1533,-4.13784 5.8152,-5.04078 -0.668,-1.78515 -5.7671,2.89611 -10.4324,6.58362 -9.7422,7.70042 0.3621,0.58619 1.3902,0.36554 2.6619,-0.57131 1.1392,-0.83944 4.626,-3.24433 7.7483,-5.34396 z m -158.70586,6.828 c 5.63157,-7.86585 6.0798,-8.723 4.56075,-8.723 -0.86238,0 -11.60279,14.59701 -11.60279,15.76883 0,1.90216 2.24093,-0.34011 7.04204,-7.04583 z m 230.04046,7.29738 c 1.6012,-1.3774 2.3288,-2.70298 1.8809,-3.42748 -0.8095,-1.30956 -3.8047,0.87034 -5.4693,3.98032 -1.2945,2.41883 0.4453,2.1507 3.5884,-0.55284 z m -56.4164,4.40918 c -0.2833,-2.74123 -5.4168,-16.97251 -6.2186,-17.23969 -0.5471,-0.18278 -1.7674,0.23327 -2.7114,0.92366 -1.6034,1.17238 -1.4102,1.77497 2.923,9.12247 4.0762,6.91223 6.2469,9.51119 6.007,7.19356 z m -135.48091,-2.64381 c 0,-1.85073 -0.43263,-3.36493 -0.9616,-3.36493 -0.52864,0 -0.96111,1.5142 -0.96111,3.36493 0,1.85052 0.43247,3.36473 0.96111,3.36473 0.52897,0 0.9616,-1.51421 0.9616,-3.36473 z m -70.83261,-2.15749 c 2.71501,-3.91776 3.10595,-5.05303 1.74029,-5.05303 -0.7026,0 -3.96937,4.28727 -7.19302,9.44016 -1.95416,3.12373 3.02257,-0.88052 5.45273,-4.38713 z m 118.83379,-3.20344 c 4.89216,-5.85666 8.69951,-10.84374 8.46059,-11.08247 -0.2386,-0.23874 -3.58675,1.07685 -7.44003,2.92343 -3.85311,1.84677 -10.13886,4.05455 -13.96805,4.90662 -6.53052,1.45277 -6.99875,1.73069 -7.54852,4.48021 -1.63899,8.19448 -0.93672,9.10363 7.19014,9.3092 l 4.41144,0.11117 8.89443,-10.64853 z m 135.98783,4.42991 c 2.9725,-3.94904 5.4043,-7.63183 5.4043,-8.18373 0,-1.52701 -10.6516,-8.01792 -11.6003,-7.069 -1.0989,1.0987 -10.5117,20.38 -10.5117,21.53203 0,0.49538 2.5433,0.90069 5.652,0.90069 l 5.6517,0 5.404,-7.17999 z m -35.9153,5.9782 c 0.019,-0.661 -0.7315,-6.50127 -1.6497,-12.9788 -1.2391,-8.73921 -2.0216,-11.77684 -3.0331,-11.77684 -1.7959,0 -9.0782,2.0791 -9.9992,2.85466 -0.5625,0.47352 3.0638,12.76004 6.4635,21.90098 0.2563,0.68869 2.1014,1.20179 4.3227,1.20179 2.449,0 3.8832,-0.44244 3.8958,-1.20179 z m -16.5335,-0.0264 c -0.4456,-1.76084 -8.8651,-16.05072 -9.4654,-16.06465 -0.2761,0 -2.1191,1.32105 -4.0956,2.95038 l -3.5939,2.96224 1.8639,2.5658 c 5.0095,6.89584 7.5416,8.81459 11.6316,8.81459 2.7432,0 3.874,-0.37949 3.6594,-1.22836 z m -13.3178,0.0264 c -0.032,-1.38173 -5.3453,-7.47732 -6.4477,-7.39762 -0.404,0.0283 -1.7871,1.38324 -3.0739,3.00861 -2.2611,2.85692 -2.2791,2.99936 -0.5373,4.27312 2.308,1.68775 10.0979,1.77743 10.0589,0.11683 z m -17.7237,-2.40337 c 1.4659,-1.98301 3.9754,-5.0048 5.5764,-6.71533 2.8862,-3.08379 3.0041,-4.84482 0.2537,-3.78926 -1.8142,0.69605 -10.1888,11.30483 -10.1896,12.90796 -8e-4,2.17143 1.6502,1.26095 4.3595,-2.40337 z m 100.8127,3.7657 c 0.2721,-0.44036 -0.5901,-2.39754 -1.9165,-4.34926 l -2.4112,-3.54864 -4.266,3.49569 c -2.3465,1.9227 -4.0288,3.87989 -3.7386,4.34945 0.6684,1.08118 11.6676,1.12829 12.3323,0.0527 z m -104.2114,1.76216 c 0,-0.52873 -0.4324,-0.96135 -0.9613,-0.96135 -0.5287,0 -0.9614,0.43262 -0.9614,0.96135 0,0.52872 0.4327,0.96135 0.9614,0.96135 0.5289,0 0.9613,-0.43263 0.9613,-0.96135 z m -183.6192,-7.14249 c 4.44498,-5.96464 13.89293,-19.05292 18.85687,-26.12267 1.52281,-2.16841 4.16172,-5.90491 5.86408,-8.30282 l 3.09563,-4.36018 -2.54954,-2.75122 c -3.24477,-3.50096 -11.0667,-15.45511 -12.71209,-19.42769 l -1.25749,-3.03555 -8.4133,0 -8.4133,0 -0.61073,20.42956 c -1.78208,59.62411 -1.79159,54.33348 0.0918,51.74243 0.9341,-1.28469 3.65539,-4.96202 6.04754,-8.17186 z m 33.97871,9.9572 c 4.62428,-6.73417 5.43018,-10.72127 1.06218,-5.25521 -3.0253,3.78586 -7.49011,12.0557 -6.50539,12.04949 0.42951,0 2.87903,-3.06005 5.44321,-6.79428 z m 85.2277,2.2272 c 2.37927,-2.9843 4.47041,-5.77226 4.6466,-6.19527 0.17715,-0.42321 -2.09514,-0.76934 -5.04739,-0.76934 l -5.36752,0 0,6.24896 c 0,3.4369 0.32429,6.22486 0.72092,6.19546 0.39646,-0.0302 2.6678,-2.49551 5.04739,-5.47981 z m 138.57699,1.8251 c 2.5683,-2.56826 4.6696,-5.11653 4.6696,-5.66316 0,-1.05989 -4.8925,-1.87785 -8.3152,-1.39002 -1.5406,0.21971 -2.2299,1.19801 -2.7096,3.84559 -0.3537,1.95304 -0.8768,4.5245 -1.1624,5.71422 -0.8847,3.68543 2.4313,2.57975 7.5176,-2.50663 z m -10.758,-6.0338 c 0.026,-0.33483 -0.928,-0.94137 -2.1177,-1.34762 -1.9702,-0.67268 -1.8865,-0.77368 0.9404,-1.13282 3.4343,-0.4362 2.8538,0.90351 7.3319,-16.92275 2.7167,-10.81473 2.9068,-10.47312 -5.9219,-10.64609 l -5.418,-0.10552 -0.6176,4.32608 c -0.3398,2.37944 -0.9194,8.54438 -1.2883,13.69991 -0.6171,8.6288 -0.5321,9.38231 1.0701,9.485 1.6104,0.10364 1.6054,0.14509 -0.066,0.57527 -1.5753,0.40417 -1.7386,1.12679 -1.2736,5.63207 0.7981,7.73282 1.5859,8.11476 4.6264,2.24208 1.4795,-2.85786 2.7105,-5.47021 2.7354,-5.80504 z m -12.3613,4.92509 c 0.3143,-2.9027 0.397,-5.6021 0.1828,-5.99855 -0.6381,-1.18482 -7.0046,-0.82474 -7.0046,0.39607 0,0.61446 0.733,3.44218 1.6286,6.28364 2.1874,6.93899 4.398,6.649 5.1924,-0.68116 z m -18.5436,4.02083 c -5.311,-7.4304 -8.2193,-9.78196 -12.8831,-10.41658 -4.2808,-0.58262 -4.5976,-0.49726 -3.4281,0.92197 0.7087,0.86016 2.0489,1.80513 2.9777,2.10001 0.9292,0.29488 3.801,2.47479 6.3817,4.84406 4.8063,4.41276 9.5187,6.14157 6.9518,2.55054 z m 124.205,0.3842 c 0,-2.26167 -2.2021,-5.35639 -3.8115,-5.35639 -1.049,0 -1.9568,2.48967 -1.9568,5.36638 0,1.94211 0.4745,2.3248 2.8842,2.3248 2.4128,0 2.8841,-0.38156 2.8841,-2.33479 z m -6.7297,-2.35457 c 0,-2.58069 -0.5402,-5.13556 -1.2018,-5.68219 -1.7359,-1.43448 -7.9986,-2.4388 -10.8094,-1.73333 -2.2361,0.56114 -2.4098,1.0192 -2.4098,6.35487 l 0,5.75001 7.2105,0 7.2105,0 0,-4.68936 z m -15.3822,-1.10927 c 0,-3.96732 -0.4079,-5.95502 -1.2918,-6.294 -0.7104,-0.27265 -4.3404,-0.36725 -8.0671,-0.21028 l -6.7753,0.28546 2.4684,6.00873 2.4685,6.00872 5.5986,0 5.5987,0 0,-5.79863 z m -30.7276,3.93434 c 4.0617,-1.44221 5.1757,-2.25866 4.9191,-3.60534 -0.1828,-0.9574 -0.4788,-1.89294 -0.6586,-2.07891 -0.4912,-0.50819 -10.9682,5.99479 -10.9998,6.82743 -0.042,1.07611 0.9729,0.90426 6.7393,-1.14318 z m -7.0711,-3.55484 c 4.9264,-2.98053 8.9571,-5.7926 8.9571,-6.24898 0,-0.45655 -3.8952,-0.83001 -8.6558,-0.83001 l -8.6557,0 -4.8036,4.6302 c -6.6218,6.38256 -6.5163,6.67123 2.8232,7.71398 0.7579,0.0848 5.4086,-2.28467 10.3348,-5.26519 z m -54.1757,4.77981 c 0.6589,-0.65893 -3.3041,-8.15435 -5.8891,-11.1377 -1.5147,-1.74841 -7.8892,-2.39433 -7.8892,-0.79949 0,1.35856 8.5357,11.05026 10.3817,11.78795 2.1991,0.87864 2.6474,0.89823 3.3966,0.14886 z m 119.8546,0.26153 c 0,-1.35083 -2.7648,-2.94623 -3.6212,-2.08983 -0.2542,0.25399 -0.2058,1.12942 0.1074,1.9455 0.7093,1.84845 3.5136,1.96359 3.5136,0.14509 z m -198.04593,-0.0452 c 0,-1.29072 0.40191,-2.5952 0.89335,-2.89894 0.5016,-0.31016 0.7322,0.71828 0.52624,2.34685 -0.62762,4.959 2.42568,3.47778 8.91563,-4.32552 6.24295,-7.50615 6.81648,-8.63294 4.80655,-9.44392 -0.66099,-0.26681 -0.12058,-0.51912 1.2018,-0.56095 1.49192,-0.0471 3.36399,-1.26114 4.93585,-3.20042 1.39263,-1.71845 13.39801,-16.30641 26.67851,-32.41762 13.2805,-16.1112 24.1461,-29.6306 24.1461,-30.04325 0,-0.41266 -5.614,-0.75032 -12.4759,-0.75032 l -12.4761,0 -13.2411,15.99815 c -7.28247,8.79894 -16.70194,20.1635 -20.93207,25.25459 -13.9711,16.81479 -19.70845,23.9535 -19.70845,24.5218 0,0.30864 2.48761,0.59543 5.52803,0.63707 3.04026,0.0414 4.98706,0.29414 4.32623,0.56095 -0.66098,0.26662 -1.21516,1.20592 -1.23092,2.0872 -0.0264,1.4456 -0.12626,1.43769 -1.00928,-0.0791 -0.6962,-1.19538 -2.1938,-1.68246 -5.17205,-1.68246 -4.06755,0 -4.38072,0.22763 -10.52758,7.65765 -3.48441,4.21151 -6.33528,7.88885 -6.33528,8.17167 0,0.28283 4.75887,0.51422 10.57526,0.51422 10.5711,0 10.57518,-7.5e-4 10.57518,-2.34667 z m 65.80713,2.43993 c -0.5025,-0.47747 -1.7787,-1.0241 -2.8361,-1.21479 -1.0575,-0.19087 -1.9229,-0.98999 -1.9229,-1.77591 0,-0.78574 -0.9733,-1.56715 -2.163,-1.73597 -1.1897,-0.16959 -2.1757,-0.81796 -2.1912,-1.44222 -0.042,-1.67907 -11.2266,-9.50328 -13.0648,-9.13887 -0.8684,0.17147 -2.2134,1.26981 -2.9885,2.43937 -1.3683,2.06402 -1.2167,2.21571 5.1728,5.1804 3.6202,1.67982 7.3334,3.42673 8.2515,3.88234 0.9183,0.45543 2.3091,0.82813 3.0906,0.82813 0.782,0 1.8847,0.86526 2.4505,1.9229 0.6963,1.30089 2.013,1.9227 4.0717,1.9227 1.8438,0 2.6826,-0.34199 2.1294,-0.86808 z m -13.892,-0.38816 c 0,-1.28657 -13.0484,-8.12795 -13.8924,-7.284 -1.1211,1.12133 -3.2805,7.39065 -2.7336,7.93747 0.3316,0.33163 4.2079,0.60277 8.6143,0.60277 5.954,0 8.0117,-0.32258 8.0117,-1.25624 z m -20.717,-4.77906 c 1.3522,-3.32742 1.8687,-5.74738 1.3011,-6.09823 -1.3495,-0.83397 -2.2304,0.44337 -4.01046,5.81541 -1.83863,5.54915 -1.93304,6.59944 -0.55129,6.13893 0.56033,-0.18654 2.02745,-2.82207 3.26065,-5.85611 z m -10.04745,4.53655 c 0,-0.82436 -0.43279,-1.23155 -0.96152,-0.90463 -0.52873,0.32673 -0.96136,1.0013 -0.96136,1.49874 0,0.49763 0.43263,0.90464 0.96136,0.90464 0.52873,0 0.96152,-0.67438 0.96152,-1.49875 z m 125.70185,1.25851 c -0.5001,-1.50176 -3.0437,-2.03199 -6.0852,-1.26868 -3.8737,0.97228 -2.6128,2.47027 2.0787,2.47027 3.0977,0 4.2876,-0.35688 4.0065,-1.20159 z m 45.6953,0.72092 c 0.1149,-0.52873 -1.1956,-1.09683 -2.914,-1.26265 -2.9544,-0.28471 -3.9617,0.58563 -2.4396,2.10792 0.9655,0.96569 5.1001,0.31279 5.3536,-0.84527 z m -7.237,-0.24025 c 0.2944,-0.89069 -1.49,-1.20178 -6.8933,-1.20178 -6.75,0 -8.3428,0.55002 -6.6102,2.2826 1.1809,1.18086 13.0708,0.22912 13.5035,-1.08082 z m -15.417,0.0961 c 0.2369,-0.71149 -1.396,-1.22571 -4.5789,-1.44221 -4.8388,-0.32899 -6.3738,0.23911 -5.3076,1.96397 0.7694,1.24494 9.4509,0.78668 9.8865,-0.52176 z m -50.6817,-0.33652 2.4036,-1.87993 -3.1246,-0.0207 c -1.7186,-0.0189 -3.1246,0.16016 -3.1246,0.38062 0,0.22121 -0.2625,1.08647 -0.5836,1.92289 -0.8099,2.11094 1.4824,1.90292 4.4292,-0.4021 z m -79.5365,1.29223 c -0.651,-0.26342 -1.9489,-0.27944 -2.8841,-0.0358 -0.9355,0.24382 -0.4028,0.4592 1.1834,0.47879 1.5864,0.0189 2.3515,-0.179 1.7007,-0.44318 z m 73.7681,-0.81137 c 0,-2.8946 -2.3726,-3.2332 -3.8118,-0.54399 -1.4207,2.65512 -1.2811,2.94737 1.4083,2.94737 1.9229,0 2.4035,-0.48067 2.4035,-2.40338 z m -264.89896,-0.35707 c -0.77564,-0.77556 -4.2904,3.01784 -4.25509,4.59195 0.0238,1.05953 0.75358,0.65365 2.36106,-1.31314 1.27937,-1.56564 2.13175,-3.04102 1.89403,-3.27881 z m 203.04896,3.97995 c -0.2962,-0.47917 -2.8325,-0.97417 -5.6365,-1.10022 -5.8761,-0.26418 -5.4814,1.22344 0.6868,2.58746 3.8002,0.84039 5.9827,0.18466 4.9497,-1.48724 z m -23.71354,0.64667 c 0,-1.02635 -0.38215,-1.86598 -0.8491,-1.86598 -0.98769,0 -2.06962,3.49041 -1.31558,4.24449 0.91143,0.91142 2.16468,-0.46541 2.16468,-2.37851 z m 109.61304,2.70053 c 0.019,-0.90087 0.218,-0.88108 0.8266,0.0791 1.2178,1.92119 9.9365,0.48143 9.5404,-1.57543 -0.2749,-1.42714 -2.8149,-1.64138 -10.6221,-0.89597 -1.7403,0.16582 -2.4279,3.59404 -0.721,3.59404 0.5288,0 0.968,-0.54078 0.9761,-1.20178 z m 54.4099,-3.19439 c -0.5833,-1.51985 -4.0108,-1.87089 -4.8597,-0.49745 -0.875,1.41584 0.3801,3.61647 2.6463,4.63981 1.7434,0.78725 2.1618,0.6301 2.4235,-0.90935 0.1734,-1.02352 0.079,-2.47836 -0.2101,-3.23301 z m -57.3088,3.01087 c 0,-2.88425 -1.5363,-3.97787 -3.407,-2.42524 -2.341,1.94268 -1.746,4.77189 1.0034,4.77189 1.9074,0 2.4036,-0.48444 2.4036,-2.34665 z m -69.3966,-0.29716 c -0.2334,-2.02954 -0.8814,-2.71088 -2.7898,-2.93266 -1.4851,-0.17335 -3.033,0.38514 -3.8456,1.38625 -0.8739,1.07666 -0.9304,1.41734 -0.1582,0.95325 0.7465,-0.44865 1.2018,-0.179 1.2018,0.70999 0,1.23325 1.0272,1.71487 5.1112,2.39603 0.4317,0.0716 0.648,-1.05877 0.4805,-2.51286 z m -21.4545,1.23457 c -1.5862,-0.68888 -4.7227,-1.55696 -6.9701,-1.92891 -3.3218,-0.54984 -4.0858,-0.40116 -4.0858,0.79497 0,1.43241 2.9498,2.04517 11.0559,2.29691 l 2.8842,0.0886 -2.8842,-1.25265 z m 29.3223,1.92383 c 0,-1.56299 -2.8599,-3.39864 -5.2949,-3.39864 -2.46,0 -1.2867,3.18516 1.4544,3.94791 3.6138,1.00544 3.8405,0.97303 3.8405,-0.54927 z m 123.8313,-2.19705 c -0.162,-2.51153 -0.7258,-4.56651 -1.2545,-4.56651 -0.5286,0 -1.0931,2.05498 -1.2544,4.56651 -0.2361,3.6779 0.019,4.56671 1.2544,4.56671 1.2463,0 1.4906,-0.88881 1.2545,-4.56671 z m -78.6461,3.60536 c 0,-0.52891 2.3793,-0.96155 5.2877,-0.96155 4.0592,0 5.2876,-0.33502 5.2876,-1.44202 0,-0.79309 -0.8397,-1.44203 -1.8662,-1.44203 -1.0262,0 -2.1334,-0.43263 -2.4602,-0.96135 -0.8619,-1.39492 -6.7935,-1.17993 -8.0137,0.29036 -1.1358,1.36855 -0.449,5.47794 0.9155,5.47794 0.4672,0 0.8493,-0.43263 0.8493,-0.96135 z m -5.7244,-0.0829 c 1.5282,-2.85522 0.9003,-2.91948 -2.901,-0.29734 l -3.3378,2.30238 2.5829,0 c 1.6343,0 2.977,-0.73637 3.6559,-2.00504 z m 57.6394,-0.8792 0,-5.7683 -3.8456,0 c -2.1152,0 -4.1503,-0.1074 -4.523,-0.24024 -0.727,-0.25814 -0.4201,9.81777 0.3368,11.04216 0.2497,0.40417 2.1592,0.73468 4.243,0.73468 l 3.7888,0 0,-5.7683 z m -13.4726,4.5667 c -0.026,-2.56994 -1.2082,-5.48076 -2.0191,-4.97973 -1.4972,0.92536 -0.9956,6.18133 0.5901,6.18133 0.7932,0 1.4363,-0.5406 1.429,-1.2016 z m -8.3171,-0.88787 c 0.8284,-3.1682 0.1488,-3.4953 -5.1034,-2.4567 -3.7365,0.73864 -4.8327,1.36289 -4.8327,2.75084 0,1.50778 0.7519,1.79533 4.6947,1.79533 4.0112,0 4.7744,-0.30413 5.2414,-2.08947 z m -13.0607,1.48367 c 4.9649,-1.33067 1.2859,-2.7433 -4.3656,-1.67623 -1.2112,0.22855 -1.9428,0.83566 -1.6256,1.34894 0.6543,1.05858 2.821,1.17691 5.9912,0.32729 z m -64.1725,-0.48199 c 0,-0.4592 -2.6214,-0.83491 -5.8252,-0.83491 -3.2906,0 -5.5878,0.38382 -5.2797,0.88239 0.6919,1.11945 11.1049,1.07498 11.1049,-0.0471 z m 125.1245,0.60711 c 0,-0.50234 -0.4648,-1.06819 -1.0335,-1.25774 -0.5685,-0.18956 -1.0335,0.37647 -1.0335,1.25774 0,0.88127 0.465,1.4473 1.0335,1.25793 0.5687,-0.18956 1.0335,-0.75559 1.0335,-1.25793 z m -4.1752,-1.58938 c 0.2062,-1.78289 -0.3648,-3.01312 -1.8963,-4.08584 -3.1912,-2.23511 -3.6865,-1.94606 -3.6865,2.15014 0,4.27087 0.6167,5.15515 3.3252,4.76738 1.3163,-0.18843 2.0596,-1.12076 2.2576,-2.83168 z m -7.8962,1.92422 c 1.2505,-2.02295 0.9831,-8.00115 -0.4339,-9.7083 -1.2375,-1.49102 -1.2089,-1.68246 0.2514,-1.68246 0.9419,0 1.3711,-0.44769 1.0019,-1.04519 -0.4651,-0.75258 -0.9384,-0.75258 -1.6912,0 -0.5747,0.57488 -3.5542,1.04519 -6.6211,1.04519 l -5.5761,0 0,5.70744 0,5.70743 3.1247,0.38779 c 6.3528,0.78837 9.2774,0.66721 9.9443,-0.4119 z m -210.34383,-4.66111 c -0.0432,-3.17253 -0.35062,-5.7683 -0.67923,-5.7683 -0.67739,0 -8.74416,10.13282 -8.74416,10.98375 0,0.30413 2.13867,0.55303 4.75246,0.55303 l 4.7527,0 -0.081,-5.76848 z m 78.06303,4.41087 c 0,-2.51794 -0.5768,-2.6928 -13.0919,-3.96995 -5.8716,-0.59901 -5.8823,-0.59543 -6.4009,2.11791 -0.2858,1.49478 -0.3177,3.04478 -0.072,3.44443 0.247,0.39965 4.7499,0.72658 10.0062,0.72658 9.4606,0 9.557,-0.0226 9.557,-2.31897 z m -24.99614,-1.52662 c 0,-1.52381 -0.43279,-3.03801 -0.96152,-3.36492 -0.58154,-0.35934 -0.96136,0.97039 -0.96136,3.36492 0,2.39452 0.37982,3.72424 0.96136,3.36491 0.52873,-0.32692 0.96152,-1.84111 0.96152,-3.36491 z m -7.51956,-1.44203 c 0.0961,-2.90818 0.20259,-6.25519 0.24028,-7.43757 0.10738,-3.34344 -2.83975,-3.16462 -5.88001,0.35669 -1.48712,1.72241 -4.32591,4.93395 -6.30895,7.13665 -1.98281,2.20252 -3.60516,4.28086 -3.60516,4.61833 0,0.33747 3.46105,0.61352 7.69119,0.61352 l 7.69102,0 0.17147,-5.28762 z m -31.0159,4.36904 c 1.76333,-0.94383 11.61647,-12.71595 11.61647,-13.87892 0,-0.32164 -5.62412,-0.58469 -12.49813,-0.58469 l -12.4979,0 0,7.14343 c 0,6.67613 0.1413,7.16378 2.16316,7.45076 5.62508,0.79892 9.56509,0.75295 11.2164,-0.13002 z m 218.1135,-6.00741 -0.2793,-7.88733 -2.8842,-0.0434 c -2.857,-0.0434 -2.8869,0 -3.1795,5.7227 -0.2734,5.33265 -0.092,5.92958 2.4034,7.92671 1.4844,1.18784 3.0408,2.16201 3.4587,2.16464 0.418,0 0.6344,-3.54448 0.4809,-7.88262 z m -142.5647,6.92599 c 0.327,-0.52873 -0.3222,-0.96136 -1.4422,-0.96136 -1.1198,0 -1.7688,0.43263 -1.442,0.96136 0.3267,0.52872 0.9757,0.96135 1.442,0.96135 0.4665,0 1.1155,-0.43263 1.4422,-0.96135 z m 105.2719,0.96135 c 0,-0.52873 -1.5396,-0.96135 -3.4216,-0.96135 -2.0362,0 -3.181,0.38929 -2.8274,0.96135 0.327,0.52872 1.8666,0.96135 3.4217,0.96135 1.5548,0 2.8273,-0.43263 2.8273,-0.96135 z m 35.5715,0.96135 c 0,-0.52873 -1.6226,-0.95476 -3.6054,-0.94665 -2.6816,0 -3.2358,0.25343 -2.1631,0.94665 1.8948,1.22458 5.7685,1.22458 5.7685,0 z m -8.5084,-0.48068 c 0,-0.50234 -0.4648,-1.06838 -1.0335,-1.25774 -0.5685,-0.18956 -1.0335,0.37648 -1.0335,1.25774 0,0.88127 0.465,1.4473 1.0335,1.25775 0.5687,-0.18937 1.0335,-0.7554 1.0335,-1.25775 z m -3.9897,0 c 0,-0.96135 -0.9614,-1.44202 -2.8841,-1.44202 -1.9229,0 -2.8842,0.48067 -2.8842,1.44202 0,0.96135 0.9613,1.44203 2.8842,1.44203 1.9227,0 2.8841,-0.48068 2.8841,-1.44203 z m -7.6912,0 c 0,-1.14827 -1.4102,-1.44202 -6.922,-1.44202 -8.3541,0 -7.8422,1.64967 0.673,2.16878 3.1726,0.19352 5.8765,0.43358 6.0087,0.53362 0.132,0.0999 0.2403,-0.46729 0.2403,-1.26038 z m 6.9867,3.23716 c -0.5991,-0.59881 -1.8334,-0.80326 -2.7434,-0.4541 -1.5309,0.58733 -1.5177,0.73543 0.1753,1.98564 2.1224,1.56676 4.342,0.24288 2.5677,-1.53154 z m 5.0307,2.05046 c 0,-1.23382 -0.5407,-2.42354 -1.2018,-2.64381 -0.7927,-0.26417 -1.2017,0.63556 -1.2017,2.64381 0,2.00825 0.409,2.90818 1.2017,2.64381 0.6611,-0.22027 1.2018,-1.40999 1.2018,-2.64381 z m -381.88406,4.5667 c 0.26018,-0.661 4.26389,-6.3852 8.89718,-12.72047 l 8.42403,-11.51869 -1.56147,-16.8423 c -0.85887,-9.26322 -2.0479,-23.54783 -2.64213,-31.7438 -0.59427,-8.1958 -1.36973,-15.68687 -1.72317,-16.6469 -0.35512,-0.96531 -1.64367,5.69632 -2.88228,14.9015 -1.23199,9.15583 -3.25745,23.56893 -4.50083,32.02928 -1.24351,8.46015 -2.94698,20.3572 -3.7858,26.43809 -0.83865,6.08071 -1.77358,12.46195 -2.07742,14.1804 -0.53464,3.02349 0.85173,4.46269 1.85189,1.92289 z m 391.97866,-0.72111 0,-5.76829 -3.1245,0.0189 c -1.7187,0 -3.7736,0.43414 -4.5667,0.94666 -0.9613,0.62123 -1.0414,0.93685 -0.2404,0.94665 0.661,0.0189 1.1714,0.9881 1.1343,2.17783 -0.064,2.06403 -0.1055,2.07496 -0.8939,0.24043 -0.7778,-1.81059 -0.8302,-1.81661 -0.8937,-0.10363 -0.079,2.10906 4.9986,7.31434 7.134,7.31434 1.1325,0 1.4509,-1.26642 1.4509,-5.76831 z m -381.13721,4.33287 c 5.66845,-7.68629 7.97108,-11.48515 7.46123,-12.31008 -0.63416,-1.02617 -0.62823,-1.03296 -7.40568,8.2542 -3.00542,4.11825 -5.18391,7.94141 -4.84118,8.49595 0.68461,1.10758 0.71519,1.07931 4.78563,-4.44007 z m 28.14856,-1.20838 c 5.71686,-8.04901 8.86714,-13.69972 7.63774,-13.69972 -0.18827,0 -2.48865,3.05947 -5.11212,6.7988 -2.62323,3.7395 -6.17166,8.60636 -7.88498,10.81566 -3.24604,4.18552 -3.763,5.4589 -2.21596,5.4589 0.50473,0 3.91368,-4.21811 7.57532,-9.37364 z m 73.68108,3.05533 c 0.46056,-4.91434 0.33974,-7.69099 -0.36478,-8.39571 -1.26245,-1.26245 -1.40751,-8.55813 -0.19595,-9.84961 0.47144,-0.50215 1.01224,-11.70957 1.2018,-24.90487 l 0.34477,-23.99175 -7.00355,-2.59313 -7.00395,-2.59331 -2.34407,3.03083 c -2.34798,3.03574 -13.77882,18.72035 -40.24325,55.21928 -7.77696,10.72561 -13.90077,19.88821 -13.60848,20.36116 0.29453,0.47653 15.69386,0.90464 34.53048,0.96003 l 33.99887,0.0999 0.68811,-7.34279 z m 44.72888,16.89355 c 0,-0.52891 -0.43248,-0.96154 -0.9612,-0.96154 -0.52889,0 -0.96152,0.43263 -0.96152,0.96154 0,0.52872 0.43263,0.96135 0.96152,0.96135 0.52872,0 0.9612,-0.43263 0.9612,-0.96135 z m 168.69219,7.55289 c 1.8294,-2.17407 2.2502,-3.31518 1.4993,-4.06606 -0.751,-0.75106 -1.7009,-0.24005 -3.3845,1.82039 -2.4051,2.9436 -3.0817,5.26802 -1.5337,5.26802 0.4816,0 2.0205,-1.36006 3.4189,-3.02235 z m -82.3583,5.18549 c 1.7757,-2.52039 5.9594,-10.32275 5.9594,-11.11414 0,-0.20614 -3.9266,-0.65365 -8.7256,-0.99432 -8.7453,-0.62087 -12.4392,0.13189 -12.4114,2.5283 0.025,2.00655 9.6671,12.22396 11.5372,12.22396 0.9778,0 2.616,-1.18972 3.6404,-2.6438 z m 11.0066,-2.10849 c 4.098,-4.71858 7.4509,-8.85171 7.4509,-9.18485 0,-0.33295 -1.3661,-0.46993 -3.0355,-0.3043 -2.5832,0.25645 -3.8004,1.41922 -8.1717,7.80706 -4.7545,6.94766 -6.1929,10.29354 -4.4154,10.27056 0.3964,0 4.074,-3.8699 8.1717,-8.58847 z m -98.31657,4.99254 c -0.0208,-7.57474 -1.49345,-9.63386 -2.36399,-3.30406 -0.6966,5.06453 -0.064,8.83211 1.48216,8.83211 0.49312,0 0.89015,-2.48761 0.88183,-5.52805 z m 118.26547,-2.64381 c 0,-6.60943 -0.3856,-12.01727 -0.8572,-12.01727 -0.991,0 -3.8154,11.59105 -4.6266,18.98735 l -0.5536,5.04738 3.0187,0 3.0187,0 0,-12.01746 z m -9.7167,5.48076 c 0.5853,-2.80209 1.049,-7.12836 1.0306,-9.61389 l -0.034,-4.51922 -7.6234,8.17168 c -4.1929,4.49453 -7.6388,8.46637 -7.6574,8.82645 -0.045,0.89766 11.8314,3.5556 12.6019,2.81998 0.3403,-0.32484 1.0972,-2.8831 1.6825,-5.685 z m -87.38337,16.59214 c 0,-0.28584 -3.13468,-4.16855 -6.96595,-8.62823 -7.60261,-8.84963 -8.29512,-8.86733 -7.9245,-0.20293 0.2874,6.71702 3.03954,9.35103 9.77032,9.35103 2.81607,0 5.12013,-0.23384 5.12013,-0.51987 z m -21.30575,-1.7989 c 0.45864,-2.36532 -0.66043,-6.33376 -1.78589,-6.33376 -0.51873,0 -0.94312,1.98281 -0.94312,4.40634 0,3.09755 0.35686,4.28746 1.20164,4.00633 0.66099,-0.22009 1.34838,-1.15563 1.52737,-2.07891 z m 80.35022,-2.6521 c 2.9527,-3.2626 5.3431,-6.18284 5.3119,-6.48921 -0.03,-0.30657 -3.0964,-2.50419 -6.8121,-4.88346 -6.0613,-3.88158 -11.5551,-8.98925 -17.8807,-16.62466 l -2.1568,-2.60311 -25.96376,0 -25.96387,0 0,5.52787 7.2e-4,5.52805 10.12039,12.19645 c 7.60213,9.16167 10.77145,12.29539 12.73689,12.59423 1.43936,0.21895 12.20649,0.46278 23.92714,0.54211 l 21.31079,0.1432 5.3685,-5.93223 z m 34.612,6.31002 c 2.834,-1.08741 1.5397,-2.04669 -4.3156,-3.19873 -7.142,-1.40509 -16.3041,-4.28048 -19.1127,-5.99855 -1.9191,-1.17389 -2.3833,-0.93158 -5.8441,3.05119 -2.0677,2.37945 -3.7723,4.65074 -3.7881,5.04719 -0.019,0.39663 3.8649,0.7211 8.6239,0.7211 6.4094,0 8.5902,-0.31147 8.4121,-1.20178 -0.1319,-0.661 0.4085,-1.11247 1.2018,-1.00356 1.5481,0.21273 12.8714,2.83375 13.1403,3.04158 0.089,0.0679 0.8461,-0.13755 1.6824,-0.45844 z m 25.5555,6.35185 c 0,-0.52873 -0.4036,-0.96135 -0.8967,-0.96135 -0.4931,0 -1.1871,-0.97342 -1.5421,-2.16314 -0.3551,-1.18972 -1.2355,-3.09961 -1.9562,-4.24449 -2.2626,-3.59366 -6.8214,-0.75596 -5.4304,3.38056 0.24,0.71451 2.2247,2.11113 4.4101,3.10338 4.5762,2.07797 5.4153,2.21514 5.4153,0.88504 z m -120.50987,-1.68227 c -0.13946,-3.46629 -0.28844,-3.61703 -3.88256,-3.91154 l -3.73813,-0.30638 3.09787,3.91154 c 1.70396,2.15126 3.45105,3.91154 3.88272,3.91154 0.43135,0 0.71964,-1.62235 0.6401,-3.60516 z m 48.34697,2.40337 c 5.6624,-5.99968 5.3336,-6.4943 -3.7868,-5.69631 -1.644,0.14321 -1.9227,0.86526 -1.9227,4.97521 0,2.64381 0.417,4.80694 0.9267,4.80694 0.5097,0 2.6619,-1.83866 4.7828,-4.08584 z m -6.6708,0.83323 c 0,-5.55161 -0.2064,-6.19226 -2.1632,-6.71665 -2.83694,-0.76029 -29.56277,-0.77952 -29.56277,-0.0207 0,0.32164 2.20044,3.35003 4.88984,6.72964 l 4.88969,6.14515 10.97324,0 10.9732,0 0,-6.13705 z m -27.88038,5.55876 c 0,-1.23287 -10.2036,-12.85689 -11.2961,-12.86857 -0.80517,-0.0189 -1.20179,1.5954 -1.20179,4.85744 0,7.1261 0.80893,8.07086 7.12645,8.32204 2.95432,0.11682 5.37144,-0.0226 5.37144,-0.31091 z m -17.305,-0.44826 c 0,-1.16372 -8.40915,-11.78155 -9.72,-12.27278 -1.38871,-0.52042 -1.04313,12.10168 0.34669,12.66244 2.30446,0.92989 9.37331,0.63613 9.37331,-0.38966 z m 58.82118,-0.6561 c 0.2414,-2.09794 0.8002,-2.64382 2.7077,-2.64382 1.9004,0 2.4665,0.54701 2.7046,2.61386 0.268,2.32461 0.5075,2.48515 2.1632,1.45125 1.4613,-0.91236 2.273,-0.90595 3.7716,0.0302 1.0504,0.65591 4.4962,1.19255 7.6572,1.19255 4.6986,0 5.9294,-0.33936 6.7428,-1.85958 1.6168,-3.02066 1.1547,-4.85706 -1.4727,-5.8561 -1.8441,-0.70113 -2.3201,-1.40453 -1.8828,-2.78268 0.7536,-2.37342 -0.7384,-2.80868 -10.654,-3.10885 l -7.7946,-0.23609 -5.3895,5.71986 c -2.9641,3.14597 -5.4054,6.26085 -5.4246,6.92165 -0.022,0.73487 1.2473,1.20179 3.266,1.20179 2.8864,0 3.3391,-0.33201 3.6051,-2.64381 z m -17.0008,5.04737 c 0,-0.54078 -3.4708,-1.08364 -7.93137,-1.24079 -7.26992,-0.25588 -9.07181,0.2606 -7.25367,2.07873 1.03841,1.03822 15.18504,0.25758 15.18504,-0.83794 z m -22.84382,0.83887 c 1.18411,-0.31731 1.91535,-0.96021 1.62594,-1.42902 -0.66779,-1.08044 -8.10445,-1.12717 -8.10445,-0.0509 0,2.03425 2.38135,2.57804 6.47851,1.4799 z m -19.15451,-1.55997 c 0.26556,-1.40095 -0.40695,-1.68246 -4.02099,-1.68246 -2.38695,0 -4.60739,0.43262 -4.93409,0.96135 -1.16659,1.88765 0.71972,2.98165 4.64653,2.69487 2.89215,-0.21123 4.07699,-0.75408 4.30855,-1.97376 z m -16.95535,-5.04738 c 0.0961,-3.96563 0.20275,-8.14775 0.24044,-9.29337 0.0376,-1.14564 -0.47216,-2.26319 -1.13315,-2.48365 -0.90823,-0.30261 -1.20164,1.96566 -1.20164,9.29356 0,11.35419 1.8315,13.526 2.09435,2.48346 z m 99.37158,7.14644 c 1.0061,-1.628 -0.062,-2.05723 -5.4793,-2.20289 -4.1254,-0.11117 -5.1359,0.17712 -5.4146,1.54585 -0.2934,1.44033 0.4202,1.68246 4.9588,1.68246 2.9157,0 5.5864,-0.46145 5.9351,-1.02542 z m -16.3831,-1.85882 c -0.4652,-0.75258 -1.0183,-0.80835 -1.6591,-0.1677 -0.5287,0.52891 -0.6475,1.46953 -0.2638,2.0904 0.4652,0.75258 1.0184,0.80835 1.6591,0.1677 0.5287,-0.52872 0.6476,-1.46935 0.2638,-2.09021 z m -12.9788,0.30185 c 0,-1.93928 -4.2219,-1.22797 -4.6033,0.77557 -0.228,1.19689 0.2711,1.44938 2.1534,1.08967 1.3474,-0.25758 2.4499,-1.09702 2.4499,-1.86524 z m 75.4178,-0.64347 c -0.8351,-3.32855 -1.9704,-3.26524 -1.814,0.10175 0.1941,4.18155 0.3461,4.54729 1.4377,3.45593 0.5602,-0.5602 0.7288,-2.15353 0.3763,-3.55711 z m -7.1593,-1.58108 c 0,-1.05745 0.1659,-1.9227 0.3686,-1.9227 0.2028,0 0.5948,0.86525 0.8713,1.9227 0.2766,1.05744 0.1111,1.9227 -0.3686,1.9227 -0.479,0 -0.8713,-0.86526 -0.8713,-1.9227 z m 3.7097,0.48067 c 0.057,-4.63434 -0.1695,-5.28762 -1.823,-5.28762 -1.0378,0 -1.8867,-0.3631 -1.8867,-0.80703 0,-0.69887 -4.1062,-3.03856 -5.3328,-3.03856 -0.2395,0 -0.4355,3.2447 -0.4355,7.21051 l 0,7.21032 4.7075,0 4.7076,0 0.064,-5.28762 z m 3.0921,7.9075 c -0.1187,-1.14959 -1.4376,-0.92706 -1.8507,0.31241 -0.2114,0.63443 0.1338,0.98057 0.7692,0.76916 0.6346,-0.21161 1.1213,-0.69831 1.0815,-1.08157 z m -89.4814,-2.06647 c -1.6e-4,-0.58167 -1.89271,-1.04276 -4.32607,-1.05425 -4.84048,-0.0226 -5.28967,0.79328 -2.23077,4.04947 l 2.09531,2.23041 2.231,-2.09568 c 1.22684,-1.1526 2.23077,-2.56109 2.23053,-3.12995 z m -20.54426,3.05175 c -0.31885,-1.18972 -0.58562,-2.70373 -0.59282,-3.36473 -0.0192,-1.23833 -3.06514,-1.67492 -4.14652,-0.59354 -0.69411,0.69416 3.21893,5.98744 4.48586,6.06827 0.45807,0.0283 0.57225,-0.92028 0.25348,-2.11 z m -59.96954,-5.27348 c -0.45072,-5.72911 -2.25317,-7.7268 -2.12427,-2.35439 0.0336,1.41942 -0.23668,3.81639 -0.60186,5.32681 -0.45527,1.88294 -0.24724,3.00333 0.66155,3.56503 2.11323,1.30616 2.56842,-0.13567 2.06458,-6.53745 z m 166.7711,6.3445 c -0.2311,-2.8492 -0.4696,-3.02105 -4.3395,-3.12449 -3.1584,-0.0848 -4.0321,0.22027 -3.8199,1.33255 0.1507,0.79309 1.2128,1.57619 2.3587,1.74012 1.1458,0.16393 2.6003,0.92103 3.2322,1.68246 1.85,2.22908 2.8311,1.60634 2.5685,-1.63064 z m 3.152,2.34195 c 0,-1.78534 -0.31,-2.2858 -0.9928,-1.60275 -0.5461,0.54605 -0.7162,1.71411 -0.378,2.59575 0.8907,2.32066 1.3708,1.97283 1.3708,-0.993 z m -49.0333,-6.29702 c 0,-0.39664 -1.6726,-0.72111 -3.7201,-0.72111 -3.6089,0 -3.7418,0.11871 -4.347,3.90382 -0.9721,6.0792 0.2623,6.58606 4.3879,1.80173 2.0222,-2.34497 3.6778,-4.58799 3.6792,-4.98444 z m -55.0917,5.3059 c -0.24364,-0.93535 -0.4592,-0.40286 -0.4788,1.1835 -0.0192,1.58618 0.17907,2.35156 0.44319,1.70074 0.26341,-0.65101 0.27949,-1.9489 0.036,-2.88424 z m 76.1891,3.17329 c 0.6276,-0.75616 0.9886,-3.02745 0.8027,-5.04719 l -0.3388,-3.67243 -1.1577,2.6862 c -2.7154,6.29985 -2.3274,9.67381 0.6938,6.03342 z m -69.16419,-0.0189 c 0,-0.76181 -0.43263,-1.65269 -0.96135,-1.97942 -0.52889,-0.32692 -0.96152,0.29659 -0.96152,1.38531 0,1.08873 0.43263,1.97942 0.96152,1.97942 0.52872,0 0.96135,-0.62331 0.96135,-1.38531 z m -14.99006,0.90463 c -1.89199,-2.88782 -2.88592,-3.03837 -3.54034,-0.53626 -0.60994,2.33216 -0.0208,2.93983 2.84999,2.93983 2.19532,0 2.2166,-0.0734 0.69035,-2.40357 z m -8.65046,-0.72092 c 0.74484,-4.83464 0.21259,-9.65194 -1.11507,-10.09455 -0.88622,-0.29546 -1.20179,1.3885 -1.20179,6.40912 0,6.97461 1.45392,9.28735 2.31686,3.68543 z m -7.12397,-3.60534 0,-6.72965 -4.20046,0 c -4.10691,0 -4.21357,0.081 -4.79622,3.60516 -1.44104,8.71849 -0.93,9.64536 5.39168,9.77838 l 3.605,0.0754 0,-6.72964 z m 100.76558,5.82859 c 0.2403,-0.72111 -0.1206,-1.08157 -0.8412,-0.84132 -0.6941,0.23139 -1.4513,0.98848 -1.6825,1.68246 -0.2405,0.7211 0.1205,1.08156 0.8411,0.84113 0.6941,-0.2312 1.4513,-0.9883 1.6826,-1.68227 z m -16.3567,-1.74257 c 1.4277,-4.78415 1.9642,-9.85431 1.0428,-9.85431 -0.4072,0 -1.3554,0.87768 -2.1066,1.95058 -0.7515,1.07271 -3.1554,3.85935 -5.3423,6.19263 -2.1866,2.3331 -3.9758,4.48361 -3.9758,4.77906 0,0.29545 2.0939,0.5372 4.653,0.5372 4.5447,0 4.678,-0.0848 5.7289,-3.60516 z m -18.8761,-2.73821 c 0.3148,-6.19828 -0.3356,-8.62333 -1.4995,-5.58985 -0.9162,2.38736 -0.678,11.93322 0.2979,11.93322 0.4835,0 1.024,-2.85447 1.2016,-6.34337 z m -12.6564,0.57508 c 0,-3.17254 0.019,-6.09277 0.021,-6.4894 0.019,-0.39664 -1.5031,-0.85527 -3.3648,-1.01939 -3.3494,-0.29527 -3.385,-0.25871 -3.385,3.48494 0,2.08099 0.2703,5.13538 0.6009,6.78787 0.5056,2.52887 1.0382,3.00427 3.3647,3.00427 2.7375,0 2.7642,-0.0566 2.7642,-5.76829 z m -7.691,-1.01807 c 0,-5.63037 -1.2126,-7.54158 -2.4036,-3.78888 -0.3356,1.05745 -1.0524,1.92271 -1.59293,1.92271 -2.00265,0 -4.5185,4.22922 -3.57011,6.00138 1.48609,2.77665 3.72101,2.0593 3.72101,-1.19444 0,-1.58617 0.47953,-2.88405 1.06553,-2.88405 0.6618,0 0.8329,0.92762 0.4513,2.44765 -0.6798,2.70807 0.047,4.61664 1.4337,3.76024 0.4922,-0.30412 0.8951,-3.12336 0.8951,-6.26461 z m -86.52482,4.01988 c 0,-2.96055 -2.15276,-5.49017 -3.80359,-4.47003 -0.55193,0.34124 -1.0036,2.10887 -1.0036,3.9285 0,2.88763 0.30565,3.30801 2.40359,3.30801 2.00673,0 2.4036,-0.45655 2.4036,-2.76648 z m 23.45097,2.20723 c 0.3211,-0.83643 0.58354,-4.33342 0.58354,-7.77126 0,-4.5716 -0.32277,-6.14364 -1.2018,-5.8529 -1.43127,0.4737 -2.26885,15.14476 -0.8643,15.14476 0.4944,0 1.16163,-0.68436 1.48256,-1.5206 z m 145.75305,1.94456 c 0,-4.8548 -1.3695,-5.20037 -1.7324,-0.43734 -0.215,2.82056 0.3278,4.82033 1.3084,4.82033 0.2333,0 0.424,-1.97226 0.424,-4.38299 z m -3.0288,-0.50291 c -0.079,-3.55749 -0.5329,-5.03983 -1.6651,-5.45136 -0.8553,-0.3109 -2.5945,-1.36288 -3.865,-2.33781 -1.2704,-0.97492 -2.5407,-1.5417 -2.823,-1.25943 -0.8423,0.84207 5.9935,13.92301 7.2789,13.92903 0.7978,0 1.1482,-1.58843 1.0742,-4.88043 z m -189.24614,26.2768 c 0,-1.98299 0.66699,-21.50641 1.47897,-43.38572 0.81205,-21.87931 1.20796,-40.04964 0.8799,-40.37825 -0.32821,-0.32881 -17.70451,-0.72921 -38.61435,-0.88994 l -38.01777,-0.29225 2.96417,3.65698 c 3.51778,4.34003 25.08948,30.5571 51.11744,62.12529 10.31074,12.50566 19.07162,22.74475 19.46808,22.75342 0.39663,0 0.7222,-1.60671 0.72356,-3.58953 z m 16.26628,7.17434 c 1.19219,-7.04074 0.7678,-9.18654 -1.4528,-7.34373 -0.94944,0.788 -1.35646,3.31254 -1.35646,8.41079 0,8.66497 1.24116,8.19352 2.80926,-1.06706 z m 128.90056,11.81301 c 0,-1.05744 0.034,-2.23643 0.074,-2.61969 0.04,-0.38345 -0.393,-0.85206 -0.9614,-1.04143 -0.588,-0.19615 -1.0335,0.9329 -1.0335,2.61969 0,1.63026 0.4327,2.96432 0.9614,2.96432 0.5287,0 0.9613,-0.86525 0.9613,-1.92289 z m -119.90564,6.97008 c 0.20947,-0.39664 -0.3411,-5.04719 -1.22388,-10.33481 -1.72709,-10.34592 -1.97769,-10.3348 -4.26783,0.18975 -2.2302,10.24888 -2.12771,10.86617 1.8023,10.86617 1.81958,0 3.47985,-0.32447 3.68941,-0.72111 z m -26.2252,-2.40564 0,-5.04964 -13.04238,-15.86059 c -7.17318,-8.72339 -15.62113,-19.00751 -18.77309,-22.85348 -3.15196,-3.84597 -6.54923,-7.95592 -7.5494,-9.13321 -2.61899,-3.08228 -21.56146,-25.81516 -28.89875,-34.68137 -11.8703,-14.34358 -11.16038,-13.66826 -12.87282,-12.24715 -2.24048,1.85939 -1.93868,3.16745 1.81877,7.88262 6.35168,7.97082 55.77084,69.6697 66.74217,83.32665 6.03819,7.51613 11.33794,13.66562 11.77713,13.66562 0.4392,0 0.79837,-2.27223 0.79837,-5.04945 z m 165.35854,1.20405 c 0,-3.20476 -0.4269,-5.76849 -0.9611,-5.76849 -1.0582,0 -1.3484,9.86789 -0.3205,10.89575 1.1639,1.1641 1.2816,0.69266 1.2816,-5.12726 z m -337.7253,-4.08603 c 5.2734,-7.53479 14.25908,-21.91963 19.96809,-31.96615 5.70886,-10.04652 13.80477,-24.25141 17.99087,-31.5665 4.18595,-7.31508 7.47872,-13.64526 7.31737,-14.06715 -0.1613,-0.4217 -6.9991,6.76111 -15.19485,15.96197 -8.19594,9.20066 -16.41581,18.41716 -18.26635,20.48081 -18.25921,20.36154 -24.12958,27.34744 -32.58333,38.77512 -5.38701,7.2823 -10.03998,13.87967 -10.33975,14.66107 -0.46144,1.20235 1.14977,1.42055 10.48752,1.42055 l 11.03253,0 9.5879,-13.69972 z m 360.4198,10.75462 c -0.3435,-2.14863 -0.8945,-6.48827 -1.2242,-9.64366 -0.5348,-5.11502 -1.6056,-7.59622 -2.7744,-6.42741 -1.0139,1.01392 -3.3843,16.58924 -2.5663,16.86189 0.4966,0.16582 1.7212,0.92047 2.7216,1.67775 3.3824,2.56053 4.5297,1.82378 3.8433,-2.46857 z m -160.63461,1.2649 c -0.67075,-3.57557 -2.10522,-5.35884 -3.57802,-4.44855 -1.26509,0.78178 -0.87223,3.21907 0.91543,5.67747 2.4388,3.3538 3.43592,2.89366 2.66259,-1.22892 z m -35.13593,3.36266 c -0.0256,-1.14148 -9.50125,-13.18418 -39.87112,-50.66953 -7.40282,-9.13699 -14.54103,-18.03919 -15.86301,-19.78231 -6.80416,-8.97268 -24.45397,-30.25336 -25.09153,-30.25336 -0.40336,0 -3.07877,3.35267 -5.94526,7.45057 -10.66823,15.25141 -54.30972,77.86585 -58.66363,84.16758 -2.48352,3.59443 -4.51543,6.94728 -4.51543,7.45076 0,0.54473 7.87852,0.9702 19.46811,1.05123 30.89072,0.21593 124.9524,1.39209 127.86456,1.59899 1.58538,0.11305 2.63315,-0.2932 2.61731,-1.01393 z m 152.88714,3.06777 c 0,-1.08873 -0.4328,-1.71204 -0.9615,-1.38531 -0.5286,0.32673 -0.9614,1.21761 -0.9614,1.97961 0,0.7618 0.4328,1.3853 0.9614,1.3853 0.5287,0 0.9615,-0.89087 0.9615,-1.9796 z m 44.2238,1.9163 c 0,-2.08438 -1.9925,-4.65658 -3.2371,-4.17892 -1.9794,0.75935 -0.7612,5.20358 1.4264,5.20358 0.9958,0 1.8107,-0.46108 1.8107,-1.02466 z m -5.7684,-2.2225 c 0,-3.09659 -2.1901,-6.35071 -3.1841,-4.731 -0.4501,0.73355 -0.9771,5.7438 -0.7632,7.25724 0.057,0.39644 0.9669,0.72092 2.0245,0.72092 1.5433,0 1.9228,-0.64103 1.9228,-3.24716 z m -103.93185,-9.68247 c 0.15074,-9.37063 -0.11306,-14.95068 -0.70996,-14.95068 -0.58225,0 -0.99344,5.98988 -1.06121,15.45792 -0.0624,8.50199 0.25852,15.22957 0.7102,14.9505 0.45143,-0.27906 0.92887,-7.235 1.06097,-15.45774 z m 0.10178,18.75464 c 0,-0.49744 -0.43279,-1.17201 -0.96136,-1.49874 -0.52873,-0.32673 -0.96152,0.081 -0.96152,0.90463 0,0.82437 0.43279,1.49874 0.96152,1.49874 0.52857,0 0.96136,-0.407 0.96136,-0.90463 z m 103.82967,0.36027 c 0,-4.22207 -0.1017,-4.37846 -2.6436,-4.08602 -3.5923,0.4134 -4.237,4.70368 -1.0428,6.94087 3.2608,2.2841 3.6864,1.95436 3.6864,-2.85485 z m 7.1511,6.37917 c -0.5155,-8.20898 -1.7334,-11.77701 -3.7555,-11.00108 -1.0676,0.40964 -1.4727,1.97339 -1.4727,5.6852 0,4.27558 0.3169,5.22054 1.9227,5.73023 1.0576,0.33559 1.9229,0.97322 1.9229,1.41678 0,0.44356 -0.8653,0.58036 -1.9229,0.30374 -1.5609,-0.40813 -1.9227,-0.0282 -1.9227,2.01277 0,2.14222 0.4192,2.51568 2.8234,2.51568 l 2.8234,0 -0.4186,-6.66332 z m -7.1511,3.64474 c 0,-1.74728 -0.7085,-3.55636 -1.6822,-4.29556 -3.0713,-2.3314 -4.0861,-1.58938 -4.0861,2.98788 0,4.16592 0.1074,4.32626 2.8843,4.32626 2.5922,0 2.884,-0.30562 2.884,-3.01858 z m -37.9709,-2.91929 c -0.1225,-4.86178 -2.4138,-6.38672 -2.3942,-1.59296 0.019,4.26107 1.0488,7.96233 1.8553,6.65766 0.352,-0.56961 0.5945,-2.84881 0.5389,-5.0647 z m -66.60778,4.25542 c 0.44016,-4.94978 0.0264,-7.23124 -1.17675,-6.48752 -0.92871,0.57395 -0.82662,11.05421 0.10746,11.05421 0.36454,0 0.84582,-2.05516 1.06913,-4.56669 z m 66.12338,6.48939 c 0,-1.58635 -0.4329,-2.88423 -0.9614,-2.88423 -1.0694,0 -1.3271,4.12107 -0.3204,5.12745 1.086,1.08609 1.2818,0.74372 1.2818,-2.24322 z m 38.4553,-0.11682 c 0,-2.6781 -0.2266,-2.86634 -3.1166,-2.58709 -4.1103,0.39739 -4.6634,3.05439 -1.0316,4.95731 3.3523,1.75632 4.1482,1.30146 4.1482,-2.37022 z m -393.20748,5.99799 c 0,-0.46692 0.86531,-1.07535 1.92288,-1.35196 1.05741,-0.27661 1.92272,-1.19236 1.92272,-2.035 0,-2.16954 -3.56758,-1.92478 -4.77307,0.32767 -1.25848,2.35118 -1.2719,3.90872 -0.0339,3.90872 0.52872,0 0.96145,-0.38214 0.96145,-0.84943 z m 400.89868,-3.47684 c 0,-5.23411 -0.028,-5.28762 -2.884,-5.28762 -2.7695,0 -2.8843,0.16958 -2.8843,4.24618 0,4.25901 0.3047,4.60382 5.528,6.25331 0.1319,0.0415 0.2403,-2.3037 0.2403,-5.21187 z m -402.94744,8.80987 c 1.04839,-1.26321 0.56216,-2.55544 -0.96178,-2.55544 -0.42204,0 -1.23046,0.86526 -1.79636,1.9229 -0.80332,1.501 -0.73114,1.9227 0.32914,1.9227 0.74694,0 1.84,-0.58055 2.429,-1.29016 z m -14.37438,-9.49839 c 5.86017,-6.46263 10.65481,-12.24996 10.65481,-12.86103 0,-0.61107 -0.57982,-1.59239 -1.28838,-2.18028 -1.01969,-0.84641 -3.27631,1.56733 -10.81566,11.56825 -10.88188,14.43477 -11.40667,15.22296 -10.1351,15.22296 0.51119,0 5.72414,-5.28743 11.58433,-11.7499 z m 39.67277,10.58014 c -0.68987,-0.68982 -1.13774,-0.74654 -1.13774,-0.1432 0,1.28338 1.13706,2.42034 1.77869,1.77856 0.2731,-0.27304 -0.017,-1.00846 -0.64095,-1.63423 z m 392.46535,-28.25113 c 0.6169,-30.61287 0.4945,-36.31974 -0.7492,-34.9122 -0.8405,0.95156 -2.1627,57.30968 -1.6049,68.41893 0.021,0.39644 0.4024,0.72092 0.8503,0.72092 0.4477,0 1.1245,-15.40235 1.5038,-34.22765 z m -363.50514,46.64837 c -0.95534,-1.62913 -6.39754,-9.21913 -12.09418,-16.86718 -9.09944,-12.21681 -12.23529,-15.23841 -12.23529,-11.79058 0,0.52496 4.61019,6.66426 10.24448,13.64301 14.03913,17.38873 17.87504,21.47777 14.08499,15.01475 z m 179.38326,-3.28748 c -1.02408,-8.19466 -1.3563,-9.1332 -3.23317,-9.1332 -1.0164,0 -1.47224,0.95588 -1.47224,3.08661 0,3.57406 3.9881,14.49111 4.91929,13.46626 0.34502,-0.3795 0.24868,-3.71822 -0.21388,-7.41967 z m 8.56453,1.83754 c -0.22011,-5.07206 -0.63746,-6.69121 -1.78077,-6.90885 -1.5593,-0.29696 -1.59714,1.02392 -0.32285,11.19593 0.82645,6.59473 2.43376,3.31856 2.10362,-4.28708 z m 113.33825,4.65186 c -0.242,-0.92536 -0.4398,-0.1677 -0.4398,1.68246 0,1.85054 0.1978,2.60783 0.4398,1.68247 0.2418,-0.92536 0.2418,-2.43957 0,-3.36493 z m -0.018,7.27044 c -0.307,-0.7669 -0.535,-0.53909 -0.5811,0.58091 -0.042,1.01336 0.1865,1.58128 0.5052,1.2619 0.3193,-0.31958 0.3534,-1.14865 0.075,-1.84281 z m 19.2594,2.34346 c -0.2203,-1.45409 -0.4004,-0.26437 -0.4004,2.6438 0,2.90817 0.1808,4.0979 0.4004,2.64381 0.2203,-1.45409 0.2203,-3.83353 0,-5.28761 z m -19.2594,6.30907 c -0.307,-0.76689 -0.535,-0.53908 -0.5811,0.58092 -0.042,1.01335 0.1865,1.58127 0.5052,1.26189 0.3193,-0.31957 0.3534,-1.14884 0.075,-1.84281 z m 45.4921,-1.02146 c 0.618,-2.77608 1.3637,-8.61635 1.6574,-12.9788 l 0.534,-7.93143 -7.8265,0 c -6.8308,0 -7.8208,0.21424 -7.7803,1.68246 0.1395,5.03475 2.7154,20.8716 3.436,21.12466 0.4642,0.16205 1.9253,0.89615 3.2473,1.62914 4.4676,2.47724 5.5188,1.92665 6.7321,-3.52603 z m -3.4644,6.29966 c -1.3505,-0.98773 -1.8999,-1.02975 -2.1872,-0.1677 -0.2109,0.63311 0.4279,1.74464 1.42,2.4699 1.3506,0.98773 1.8999,1.02974 2.1874,0.16769 0.211,-0.63311 -0.4281,-1.74463 -1.4202,-2.46989 z m -107.93143,-23.6046 c -0.19403,-0.92536 -0.68411,-1.68245 -1.08946,-1.68245 -1.39231,0 -1.56786,29.292 -0.19875,33.16774 0.69091,1.95587 1.93304,-28.40696 1.28821,-31.48529 z m 126.77473,16.10311 c 0,-12.49794 -0.3515,-19.70845 -0.9613,-19.70845 -0.6096,0 -0.9614,7.21051 -0.9614,19.70845 0,12.49813 0.3518,19.70845 0.9614,19.70845 0.6098,0 0.9613,-7.21032 0.9613,-19.70845 z m -21.9245,16.34372 c 0.019,-1.58636 0.235,-2.11885 0.479,-1.1835 0.2437,0.93535 0.2276,2.23322 -0.036,2.88424 -0.2632,0.65082 -0.4626,-0.11494 -0.4429,-1.70074 z m 2.6967,0.37893 c 0,-2.58785 -0.3971,-4.70519 -0.8827,-4.70519 -0.4854,0 -1.5669,-0.26267 -2.4036,-0.58356 -1.27,-0.48746 -1.5204,0.26511 -1.5198,4.56651 5e-4,4.81504 0.1563,5.1593 2.4033,5.28875 2.2546,0.13002 2.4028,-0.15263 2.4028,-4.56651 z m -487.69757,1.30335 c 3.02938,-4.09771 11.8221,-15.88679 19.5391,-26.19767 13.67941,-18.27735 32.85318,-44.07047 46.45312,-62.49027 3.70872,-5.02326 17.39815,-23.40971 30.4208,-40.85893 13.02268,-17.44922 27.98842,-37.56618 33.25689,-44.70453 5.26865,-7.13834 16.92176,-22.92771 25.89571,-35.08742 8.97394,-12.15972 19.00579,-24.7059 22.29296,-27.88032 l 5.9767,-5.7715 0.52038,-19.70845 c 1.11633,-42.28644 1.45872,-58.57571 2.01135,-95.65801 l 0.57305,-38.45555 3.40605,-17.7328 3.40588,-17.7328 -2.46246,-1.97565 -2.46227,-1.97565 1.97195,-10.3463 1.97215,-10.34611 -5.54752,-8.16734 c -3.05109,-4.49189 -6.02067,-8.54212 -6.59914,-9.00056 -0.57845,-0.45826 -3.19239,-1.14356 -5.80854,-1.52268 -4.17762,-0.60541 -4.61019,-0.51271 -3.55195,0.76237 0.97724,1.17767 0.93529,1.60295 -0.22213,2.25057 -0.78482,0.43941 -1.45788,1.12321 -1.49541,1.51985 -0.13077,1.37589 -1.51222,0.81419 -1.83593,-0.74655 -0.50135,-2.41657 3.97178,-11.95723 5.61323,-11.97258 0.79315,-0.009 5.76832,0.80143 11.05597,1.79745 10.48889,1.97578 18.74697,3.13637 18.74697,2.63469 0,-0.17524 3.00169,-14.87287 6.67032,-32.66131 3.66862,-17.78847 10.83449,-53.43644 15.92413,-79.21776 5.08984,-25.7813 10.98361,-55.31128 13.09772,-65.62216 2.11395,-10.31088 8.97395,-44.059144 15.24427,-74.996146 6.27039,-30.93702 11.70864,-57.476514 12.08518,-58.976644 l 0.68444,-2.72753 52.50879,0.59986 c 28.87987,0.32991 54.60426,0.58747 57.16532,0.57232 3.79639,-0.0224 4.74566,0.31343 5.13933,1.81799 0.66627,2.54777 21.83727,20.266443 24.21526,20.266443 1.06001,0 2.21476,0.464697 2.56578,1.03267 0.51064,0.826626 6.27982,36.378151 11.92282,73.474846 2.4028,15.795628 5.0825,33.272401 7.2964,47.588691 1.3492,8.72459 4.8217,31.65368 7.7165,50.95354 2.8948,19.29986 7.6539,50.66511 10.5752,69.7006 2.9216,19.03547 6.1465,40.23405 7.1663,47.10799 6.3087,42.5223 9.6033,61.38434 10.9895,62.91625 1.5964,1.76386 2.0247,3.38168 0.6745,2.54714 -1.1209,-0.69265 -0.4212,6.66257 2.4135,25.36916 2.2619,14.92638 2.4154,24.05318 0.4047,24.05318 -0.4207,0 -3.5255,3.35286 -6.899,7.45075 -18.277,22.20058 -23.1295,28.29373 -22.7977,28.62573 0.2016,0.20162 3.3427,-0.71375 6.9802,-2.03406 17.216,-6.24897 32.8787,-5.17852 53.5934,3.6632 12.5642,5.36261 25.9617,16.08219 31.8781,25.50576 l 2.5653,4.08584 14.7733,0 14.7733,0 9.4896,6.67443 c 14.9125,10.48857 14.1017,9.59731 8.5282,9.37779 -2.6438,-0.10363 -5.0232,0.24326 -5.2876,0.77199 -0.5783,1.15637 9.8204,1.68811 10.5568,0.53984 0.2747,-0.42811 1.457,-0.42001 2.6281,0.0189 1.9796,0.74089 2.0335,0.97982 0.7718,3.41183 -1.5582,3.00371 -1.7708,13.35886 -0.3296,16.05204 0.6696,1.25059 0.6449,2.14279 -0.078,2.86615 -1.6391,1.63931 -1.3325,12.69429 0.3918,14.12538 1.9447,1.61407 1.9978,9.6139 0.062,9.6139 -0.7889,0 -1.5083,1.13055 -1.6825,2.64381 l -0.3041,2.6438 -27.0195,-0.33973 -27.0193,-0.33973 -2.2668,3.70464 c -1.2467,2.03746 -4.4299,6.00647 -7.0734,8.82006 l -4.807,5.11558 6.9262,13.63151 c 7.4426,14.64845 20.9852,40.99498 38.8804,75.64092 26.0595,50.45247 67.0839,130.25253 67.0839,130.49069 0,0.14132 -9.3016,0.25815 -20.6698,0.25815 -11.3685,0 -20.67,-0.33709 -20.67,-0.74919 0,-0.41208 -3.6014,-7.65839 -8.0032,-16.10328 -4.4016,-8.44471 -14.9727,-28.98186 -23.4911,-45.6378 -32.184,-62.93024 -30.5339,-59.96932 -33.9131,-60.84493 -1.6734,-0.43376 -4.6219,-0.65685 -6.552,-0.49594 l -3.5089,0.29282 -1.101,49.0306 c -0.6058,26.96701 -1.1463,54.76309 -1.2018,61.76935 l -0.1,12.73837 -2.7373,0 c -1.9113,0 -3.0287,-0.65271 -3.7035,-2.16313 l -0.9662,-2.16314 -0.6876,2.16314 -0.6874,2.16313 -66.7129,0 -66.71268,0 -0.32397,-7.93143 -0.3239,-7.93162 -0.19579,7.93162 -0.19555,7.93143 -3.12451,0 -3.12468,0 0.31189,-9.36705 c 0.17147,-5.15195 -0.0432,-9.01017 -0.48072,-8.57396 -0.43583,0.43602 -0.83525,2.16257 -0.88766,3.83692 -0.0528,1.67398 -0.16011,5.53145 -0.2402,8.5717 -0.14514,5.52448 -0.14698,5.52805 -3.1618,5.52805 l -3.01674,0 0.46712,-23.55404 c 0.3567,-17.9964 0.19331,-23.55404 -0.69211,-23.55404 -1.6666,0 -2.39416,8.95383 -2.39416,29.46347 l 0,17.64461 -3.48777,0 -3.48777,0 0.57209,-3.60516 c 0.31429,-1.98299 0.6197,-12.69051 0.67835,-23.79447 0.0848,-16.19675 -0.14506,-20.18913 -1.16995,-20.18913 -1.49649,0 -1.4588,-0.61314 -1.62803,26.67853 l -0.13002,20.91457 -9.65735,0 -9.65767,0 0.76469,-3.60535 c 0.42055,-1.98281 0.75372,-7.06617 0.74028,-11.29616 -0.0224,-6.8069 -0.46352,-8.71095 -3.84559,-16.56154 -2.10171,-4.87836 -4.09524,-8.88016 -4.43009,-8.89278 -1.33326,-0.049 -1.68812,4.60985 -0.80229,10.54471 1.86054,12.46836 3.81471,27.01638 3.81471,28.39811 0,1.92704 -4.43937,1.8347 -5.18478,-0.1074 -0.32109,-0.83642 -0.58353,-2.35062 -0.58353,-3.36473 0,-1.01449 -0.43263,-1.84432 -0.96152,-1.84432 -0.52873,0 -0.9612,1.5142 -0.9612,3.36492 l 0,3.36492 -8.23079,0 -8.23072,0 0.51497,-4.08603 c 0.92279,-7.32526 2.78518,-73.80904 2.08682,-74.50715 -0.58898,-0.58903 -28.15951,-1.03522 -146.45264,-2.37022 -13.55577,-0.15263 -24.27564,0.0999 -24.27497,0.57262 3.4e-4,0.46561 1.45025,2.84506 3.22179,5.28763 1.7714,2.44257 11.57839,15.90563 21.79315,29.91776 10.21477,14.01232 20.73083,28.50532 23.3694,32.20658 2.63823,3.70126 5.86155,8.13568 7.16248,9.85413 l 2.36546,3.12468 -7.08419,-0.0245 c -6.91332,-0.0245 -7.14208,-0.10175 -9.48769,-3.2594 -1.32184,-1.77912 -7.81125,-9.84018 -14.42076,-17.9135 -42.09223,-51.41401 -37.24853,-45.7045 -38.07376,-44.87919 -0.66558,0.66552 4.82283,10.31389 23.82065,41.87529 6.78783,11.27675 12.78693,21.33533 13.33126,22.35227 0.92016,1.71958 0.62176,1.84902 -4.2639,1.84902 -5.10001,0 -5.33505,-0.1187 -8.05479,-4.08584 -24.57355,-35.83981 -31.48094,-45.7337 -33.05599,-47.34833 -1.6401,-1.68132 -1.98198,-1.73634 -2.7228,-0.43789 -0.46604,0.81664 -3.36309,5.03003 -6.43796,9.3629 -3.07505,4.33305 -10.97786,15.6701 -17.56187,25.19354 l -11.97104,17.31562 -16.68703,0 c -10.87985,0 -16.48018,-0.33445 -16.09278,-0.96135 0.32675,-0.52872 2.33796,-0.96135 4.46923,-0.96135 2.84303,0 4.35577,-0.5762 5.67964,-2.16314 2.55009,-3.05683 2.32251,-3.60516 -1.49626,-3.60516 -1.85087,0 -3.36495,-0.43262 -3.36495,-0.96135 0,-0.52891 1.93577,-0.96153 4.3016,-0.96153 3.8128,0 4.47194,-0.32956 5.80193,-2.90139 1.58474,-3.06476 1.51391,-3.16594 -2.89315,-4.14105 -1.295,-0.28659 -0.98114,-0.46692 0.96144,-0.5519 3.45564,-0.15074 4.64126,-0.85791 6.10507,-3.6387 1.50407,-2.85729 1.41338,-3.1876 -0.87413,-3.1876 -1.08882,0 -1.71212,-0.43263 -1.38537,-0.96155 0.32677,-0.52872 1.63501,-0.96135 2.90709,-0.96135 1.30264,0 2.74761,-0.81211 3.30806,-1.85957 1.39061,-2.59841 1.24083,-3.90872 -0.44683,-3.90872 -0.79314,0 -1.44209,-0.43263 -1.44209,-0.96154 0,-0.52873 1.07047,-0.96135 2.37872,-0.96135 2.9312,0 5.91453,-4.7817 4.10935,-6.58664 -0.83151,-0.83171 -0.71398,-1.10436 0.47555,-1.10436 2.01373,0 4.57299,-3.61703 4.57299,-6.46302 0,-1.20423 0.4397,-2.18952 0.9769,-2.18952 0.53735,0 1.72706,-1.62234 2.64382,-3.60516 0.91678,-1.983 1.90896,-3.82147 2.20463,-4.08602 1.3514,-1.208 5.6778,-9.96775 5.17253,-10.47292 -0.31166,-0.31185 -2.37294,1.39473 -4.58064,3.79245 -10.59129,11.50286 -43.44533,47.56521 -50.53598,55.47101 l -7.97599,8.89278 -12.415,0 -12.41497,0 5.50793,-7.45075 z"
         clip-path="url(#clipPath6554)" />
    </g>
  </g>
</svg>
