<?xml version="1.0" standalone="no"?>
<!DOCTYPE svg PUBLIC "-//W3C//DTD SVG 20010904//EN"
 "http://www.w3.org/TR/2001/REC-SVG-20010904/DTD/svg10.dtd">
<svg version="1.0" xmlns="http://www.w3.org/2000/svg"
 width="1040.000000pt" height="1040.000000pt" viewBox="0 0 1040.000000 1040.000000"
 preserveAspectRatio="xMidYMid meet">
<metadata>
Created by potrace 1.11, written by Peter Selinger 2001-2013
</metadata>
<g transform="translate(0.000000,1040.000000) scale(0.100000,-0.100000)"
fill="#000000" stroke="none">
<path d="M5584 9734 c-21 -14 -48 -34 -59 -44 -27 -24 -80 -50 -103 -50 -10 0
-43 -24 -74 -52 -30 -29 -76 -71 -103 -92 -26 -22 -52 -52 -57 -68 -6 -15 -14
-28 -19 -28 -46 0 -62 -228 -89 -1275 -6 -231 -14 -534 -18 -673 l-7 -254 -60
-24 c-33 -14 -75 -41 -92 -59 -43 -45 -43 -81 -2 -121 38 -35 61 -87 82 -179
34 -154 33 -273 -3 -317 -17 -21 -18 -21 -44 -5 -14 10 -26 27 -26 38 0 12 -9
34 -21 50 -21 30 -95 79 -120 79 -48 0 -199 103 -199 136 0 19 -43 29 -131 29
-80 0 -109 -12 -109 -45 0 -25 -36 -67 -81 -96 -54 -34 -172 -147 -215 -206
-20 -27 -36 -60 -36 -74 0 -14 -9 -29 -19 -35 -11 -5 -32 -36 -48 -67 -18 -36
-54 -81 -93 -118 -56 -52 -88 -71 -175 -105 -12 -4 -29 -24 -39 -44 -18 -39
-71 -85 -97 -85 -20 0 -30 -32 -22 -71 7 -32 -15 -79 -38 -79 -19 0 -65 -47
-136 -138 -69 -90 -145 -159 -233 -215 -40 -26 -59 -46 -67 -69 -36 -111 -48
-395 -61 -1443 -6 -473 -15 -1049 -20 -1280 -20 -891 -40 -1652 -46 -1702 l-5
-53 -455 0 -454 0 0 -450 0 -450 4205 0 4205 0 0 1560 0 1560 -990 0 -990 0 0
-1105 0 -1105 -227 0 -228 0 3 177 c13 734 16 1203 9 1233 -9 38 -12 140 -27
1035 -6 319 -15 713 -20 875 -5 162 -12 393 -14 513 -6 253 -9 262 -92 301
-29 14 -57 32 -62 41 -5 11 -37 23 -83 32 -41 8 -114 32 -164 53 -123 53 -232
73 -358 68 -109 -4 -170 -25 -200 -69 -13 -18 -22 -20 -55 -14 -34 5 -43 3
-61 -16 -29 -32 -60 -117 -81 -228 -15 -83 -21 -96 -49 -118 -41 -32 -71 -92
-71 -143 0 -27 -4 -40 -14 -40 -16 0 -26 -21 -26 -53 0 -12 -8 -36 -19 -53
-11 -18 -20 -56 -23 -95 -3 -45 -12 -81 -33 -122 l-30 -59 -6 54 c-7 62 -23
95 -89 186 -54 75 -76 126 -86 205 -4 29 -17 81 -30 116 -29 77 -30 134 -4
183 l19 36 -21 14 c-27 18 -28 70 -2 99 26 29 53 130 42 159 -5 13 -22 38 -38
56 -42 48 -56 110 -85 364 -14 124 -39 317 -55 430 -28 195 -60 583 -60 734 0
83 13 135 46 187 13 21 24 47 24 58 0 33 -52 83 -118 113 -45 21 -66 36 -73
56 -6 15 -21 146 -35 291 -13 146 -42 445 -64 666 -21 220 -55 578 -75 795
-49 541 -68 682 -97 718 -17 20 -62 14 -104 -14z m-1178 -2999 c7 -18 -3 -65
-15 -65 -12 0 -31 48 -25 65 8 19 33 19 40 0z m-156 -169 c0 -19 -24 -36 -38
-27 -9 5 -8 12 4 29 16 23 34 21 34 -2z m390 -1328 c0 -59 -16 -128 -30 -128
-5 0 -13 6 -17 14 -13 22 -43 33 -137 51 -106 19 -156 38 -156 59 0 8 9 18 20
21 26 8 222 32 278 34 l42 1 0 -52z m180 -3867 c-1 -13 -4 -12 -15 3 -8 11
-15 27 -15 35 1 13 4 12 15 -3 8 -11 15 -27 15 -35z"/>
</g>
</svg>
